<svg width="526" height="131" viewBox="0 0 526 131" fill="none" xmlns="http://www.w3.org/2000/svg">
<path d="M122.861 62.8235C122.861 48.249 134.381 37.2523 149.947 37.2523C154.626 37.2523 159.999 38.792 164.186 41.5973V52.457C160.419 48.7421 155.249 46.6436 150.297 46.6436C140.174 46.6436 133.333 53.509 133.333 62.8235C133.333 72.1381 140.174 78.8665 150.297 78.8665C155.254 78.8665 160.419 76.7625 164.186 73.0531V83.9128C159.999 86.7127 154.621 88.2578 149.947 88.2578C134.381 88.2523 122.861 77.3214 122.861 62.8235Z" fill="#FFFFFA"/>
<path d="M168.44 69.6177C168.44 58.9717 176.815 50.9119 187.707 50.9119C198.6 50.9119 206.975 58.9662 206.975 69.6177C206.975 80.2692 198.529 88.2523 187.707 88.2523C176.886 88.2523 168.44 80.1267 168.44 69.6177ZM187.707 79.3542C193.014 79.3542 197.06 75.2229 197.06 69.6177C197.06 64.0125 193.009 59.81 187.707 59.81C182.406 59.81 178.355 64.0125 178.355 69.6177C178.355 75.2229 182.406 79.3542 187.707 79.3542Z" fill="#FFFFFA"/>
<path d="M247.11 67.5849V87.4085H237.337V67.9356C237.337 63.0318 234.405 59.81 229.939 59.81C225.473 59.81 222.541 63.0318 222.541 67.9356V87.4085H212.768V67.5849C212.768 57.4978 219.538 50.9119 229.939 50.9119C240.34 50.9119 247.11 57.4978 247.11 67.5849Z" fill="#FFFFFA"/>
<path d="M266.585 42.1562V51.7557H278.313V59.8813H266.585V72.5601C266.585 77.6064 269.446 79.7049 272.52 79.7049C275.032 79.7049 276.779 79.0036 278.313 78.1653V86.7128C275.802 87.7648 273.077 88.2524 270.773 88.2524C262.813 88.2524 256.741 83.4198 256.741 73.119V59.8813H251.02V51.7557H256.741V42.1562H266.585Z" fill="#FFFFFA"/>
<path d="M281.316 69.6176C281.316 59.1799 288.578 50.983 299.257 50.983C310.635 50.983 316.849 60.1606 315.243 71.6504H289.975C290.953 76.8337 295.211 80.2691 301.91 80.2691C306.377 80.2691 310.706 78.5158 314.059 75.6447V83.9785C311.198 86.4989 306.448 88.2523 300.24 88.2523C288.932 88.2523 281.322 80.7568 281.322 69.6176H281.316ZM305.885 65.1357C305.607 61.2126 302.604 58.3415 298.487 58.3415C294.37 58.3415 291.368 60.6537 290.248 65.1357H305.885Z" fill="#FFFFFA"/>
<path d="M331.852 68.1438V87.4085H322.079V51.7557H331.852V57.2184C333.878 53.1528 337.994 50.9119 341.625 50.9119C346.719 50.9119 350.279 53.0104 352.234 57.0047C355.024 53.0104 358.867 50.9119 363.819 50.9119C371.709 50.9119 376.382 56.517 376.382 66.6754V87.4085H366.609V67.5137C366.609 62.7523 364.305 59.81 360.675 59.81C356.694 59.81 354.112 63.0318 354.112 68.1438V87.4085H344.339V67.5137C344.339 62.7523 342.035 59.81 338.475 59.81C334.424 59.81 331.841 63.0318 331.841 68.1438H331.852Z" fill="#FFFFFA"/>
<path d="M394.187 82.017V87.4085H384.414V38.0906H394.187V57.1471C396.349 53.1528 400.4 50.9118 405.565 50.9118C415.196 50.9118 422.807 58.8292 422.807 69.6176C422.807 80.4061 415.196 88.2523 405.565 88.2523C400.4 88.2523 396.349 86.0113 394.187 82.017ZM403.54 79.3541C408.847 79.3541 412.892 75.2228 412.892 69.6176C412.892 64.0125 408.841 59.81 403.54 59.81C398.238 59.81 394.187 64.0125 394.187 69.6176C394.187 75.2228 398.238 79.3541 403.54 79.3541Z" fill="#FFFFFA"/>
<path d="M427.131 69.6176C427.131 59.1799 434.393 50.983 445.072 50.983C456.451 50.983 462.664 60.1606 461.059 71.6504H435.791C436.768 76.8337 441.027 80.2691 447.726 80.2691C452.192 80.2691 456.522 78.5158 459.874 75.6447V83.9785C457.013 86.4989 452.263 88.2523 446.055 88.2523C434.748 88.2523 427.137 80.7568 427.137 69.6176H427.131ZM451.701 65.1357C451.422 61.2126 448.419 58.3415 444.303 58.3415C440.186 58.3415 437.183 60.6537 436.064 65.1357H451.701Z" fill="#FFFFFA"/>
<path d="M483.531 60.0895C479.415 60.0895 477.182 63.3824 477.182 69.1246V87.4085H467.409V67.5137C467.409 57.3554 471.667 50.9119 481.719 50.9119C483.182 50.9119 486.534 51.2625 487.861 51.7502V61.0647C487.162 60.5771 484.509 60.084 483.531 60.084V60.0895Z" fill="#FFFFFA"/>
<path d="M92.716 67.9361L87.9001 64.0001L81.7301 69.1079C76.9797 73.044 72.6989 77.5716 68.9859 82.577L65.3494 87.4914L61.5709 82.4746C57.4976 77.0597 52.8128 72.1794 47.6146 67.9361L42.7987 64.0001L45.6599 61.668C52.1575 56.3668 58.0109 50.2693 63.0998 43.5006L65.3385 40.5201L67.0748 42.818C72.5023 50.0304 78.7488 56.5374 85.6833 62.2027L87.8892 64.0114L90.7503 61.6794C92.5631 60.2005 94.3322 58.642 96.0468 57.038C92.9781 42.2947 80.4087 31.26 65.3494 31.26C47.9968 31.26 33.9204 45.9236 33.9204 64.0001C33.9204 82.0765 47.9968 96.7401 65.3494 96.7401C80.4524 96.7401 93.0655 85.6372 96.0795 70.8484C94.9765 69.8473 93.8627 68.869 92.7051 67.9361H92.716Z" fill="#FFFFFA"/>
</svg>
