<svg xmlns="http://www.w3.org/2000/svg" width="104" height="53" fill="none" viewBox="0 0 104 53">
  <g fill-rule="evenodd" clip-path="url(#clip0_10352_147940)" clip-rule="evenodd">
    <path fill="#0085FF" d="M64.5 12.3v12.3c0 2.1.5 4 1.4 5.6a9.6 9.6 0 0 0 3.7 3.8c1.5.9 3.8 1.3 5.8 1.3s4.2-.5 5.8-1.4c1.6-1 2.8-2.2 3.6-3.8.9-1.6 1.3-3.5 1.3-5.6v-5.4c0-.6-.3-1.2-.7-1.6-.5-.4-1-.7-1.7-.7-.6 0-1.1.3-1.6.7-.4.4-.7 1-.7 1.6v5.4c0 1.3-.2 2.4-.7 3.3-.5 1-1.2 1.7-2 2.2a8.2 8.2 0 0 1-6.7 0c-1-.5-1.8-1.2-2.4-2.1-.5-1-.8-2-.8-3.2v-8.2c0-2.3-2-4.2-4.3-4.2Z"/>
    <path fill="white" d="M70.4 24.6c0 3.1 2.1 4.7 4.7 4.7 2.9 0 4.8-1.9 4.8-4.8a18.8 18.8 0 0 1-9.5.1Z"/>
    <path fill="white" d="M11.5 14.4H2c-.6 0-1 .2-1.4.6a2 2 0 0 0-.6 1.4V33c0 .6.2 1 .6 1.4.3.4.8.5 1.4.5.6 0 1.1-.1 1.5-.5.4-.4.6-.9.6-1.4v-6.5h6c.6 0 1-.2 1.5-.6.3-.4.5-.8.5-1.3s-.1-1-.5-1.3a2 2 0 0 0-1.4-.5H4V18h7.4c.5 0 1-.2 1.4-.6.3-.4.5-.8.5-1.3s-.2-1-.6-1.4c-.3-.3-.7-.4-1.3-.4Z"/>
    <path fill="white" d="M26.2 26.8a5 5 0 0 1-1 3.3c-.8 1-1.8 1.4-3 1.4a4 4 0 0 1-3-1.3 5 5 0 0 1-1.1-3.4 5 5 0 0 1 1.1-3.4c.8-.9 1.7-1.3 3-1.3 1.1 0 2 .4 2.9 1.3a5 5 0 0 1 1.1 3.4m1.8-8.3c-.5 0-1 .2-1.4.5a2 2 0 0 0-.5 1 7.3 7.3 0 0 0-4.5-1.5c-1.4 0-2.6.4-3.7 1-1.1.8-2 1.8-2.6 3a10 10 0 0 0-1 4.3c0 1.6.4 3 1 4.3A7.4 7.4 0 0 0 18 34a7 7 0 0 0 3.8 1 6.6 6.6 0 0 0 4.4-1.8c0 .4.2.7.5 1 .4.3.8.5 1.4.5a2 2 0 0 0 2-2l-.2-12.3c0-.6-.1-1-.5-1.4a2 2 0 0 0-1.4-.6Z"/>
    <path fill="white" d="m44.2 30.3-.7.1-.6.4-.4.3c-.5.2-1.2.3-2 .3a4 4 0 0 1-3.2-1.3c-.8-.8-1.2-2-1.2-3.3a5 5 0 0 1 1.2-3.4c.8-1 1.9-1.4 3.3-1.4a5 5 0 0 1 1.7.4l.5.3.6.4.8.1c.5 0 .9-.1 1.2-.5.2-.4.4-.8.4-1.3 0-.9-.6-1.6-1.7-2.2a9 9 0 0 0-4-.7 8 8 0 0 0-4.1 1 7.5 7.5 0 0 0-2.8 3 9 9 0 0 0-1 4.3c0 1.5.4 3 1 4.2a7.3 7.3 0 0 0 6.8 4c1 0 2-.1 3-.4.8-.2 1.6-.6 2.1-1 .6-.4 1-1 1-1.5s-.3-1-.6-1.3c-.3-.3-.7-.5-1.3-.5"/>
    <path fill="white" d="M55 21.8c1 0 2 .3 2.9 1 .7.6 1.2 1.5 1.2 2.3h-8c.4-2.2 1.6-3.3 4-3.3Zm3.6-2.3a7.3 7.3 0 0 0-7.5 0 7.7 7.7 0 0 0-2.8 3c-.7 1.3-1 2.8-1 4.5 0 1.5.3 3 1 4.1a7.3 7.3 0 0 0 3 3c1.2.6 2.6 1 4.3 1a8.6 8.6 0 0 0 5-1.7c.6-.5 1-1 1-1.6 0-.5-.2-.8-.6-1.2-.5-.5-1.3-.6-2.2-.2l-.6.4-1 .4a6 6 0 0 1-1.8.2 4.2 4.2 0 0 1-4.2-3.3h9.4c.5 0 1-.1 1.3-.5.4-.3.6-.7.6-1.3 0-1.4-.3-2.7-1-3.9a8 8 0 0 0-2.8-2.9"/>
    <path fill="white" d="M96.3 31.4c-1.2 0-2.2-.4-3-1.3a5 5 0 0 1-1.1-3.3 5 5 0 0 1 1.1-3.4c.8-.9 1.8-1.3 3-1.3 1.1 0 2.1.4 2.9 1.3a5 5 0 0 1 1.1 3.3 5 5 0 0 1-1.1 3.4c-.8.9-1.7 1.3-2.9 1.3m6.7-9a7.5 7.5 0 0 0-2.6-3 8 8 0 0 0-3.8-1 6.4 6.4 0 0 0-4.4 2c0-.4-.2-.8-.5-1-.3-.4-.8-.6-1.3-.6-.6 0-1 .2-1.4.6a2 2 0 0 0-.6 1.4l.1 18c0 .5.2 1 .6 1.4.3.3.8.5 1.4.5.5 0 1-.2 1.3-.6.4-.4.6-.8.6-1.4v-5.4a7.2 7.2 0 0 0 4.4 1.7c1.4 0 2.6-.4 3.7-1 1-.8 2-1.8 2.6-3 .6-1.3.9-2.7.9-4.3 0-1.6-.3-3-1-4.3Z"/>
  </g>
  <defs>
    <clipPath id="clip0_10352_147940">
      <rect width="104" height="28.4" fill="#fff" transform="translate(0 12.3)"/>
    </clipPath>
  </defs>
</svg>
