<svg width="102" height="40" viewBox="0 0 102 40" fill="none" xmlns="http://www.w3.org/2000/svg">
<path d="M9.43561 19.4995C10.286 19.4995 10.9753 20.1759 10.9753 21.0083C10.9753 21.8432 10.286 22.5184 9.43561 22.5184C8.58521 22.5184 7.89586 21.8432 7.89586 21.0083C7.89586 20.1759 8.58521 19.4995 9.43561 19.4995ZM13.4866 19.4995C14.337 19.4995 15.0263 20.1759 15.0263 21.0083C15.0263 21.8432 14.337 22.5184 13.4866 22.5184C12.6362 22.5184 11.9469 21.8432 11.9469 21.0083C11.9469 20.1759 12.6362 19.4995 13.4866 19.4995ZM11.6067 24.7604C16.3844 24.7604 20.5887 18.3553 20.5887 10.243C20.5887 2.13198 17.5312 0.973633 11.6067 0.973633C5.68225 0.973633 2.33476 2.13198 2.33476 10.243C2.33476 18.3553 6.35226 24.7604 11.6067 24.7604ZM22.1427 32.164C21.4971 31.0907 20.7743 30.2532 20.0321 29.5651C19.2874 28.8758 18.54 28.332 17.812 27.7883C17.468 27.5306 17.115 27.2935 16.7555 27.0784C17.115 26.8632 17.468 26.6248 17.812 26.3671C19.4742 25.1263 20.9199 23.4526 22.1427 21.4193C22.5743 20.7016 22.3295 19.7765 21.5976 19.3539C20.8645 18.9313 19.9213 19.1696 19.4884 19.8873C18.4305 21.6487 17.2271 23.0119 15.9476 23.9654C14.5767 24.982 13.2276 25.4858 11.8412 25.5657C11.7149 25.5618 11.5887 25.558 11.4611 25.558C11.3348 25.558 11.2073 25.5619 11.081 25.5657C9.69459 25.4858 8.34683 24.982 6.9746 23.9654C5.69513 23.0119 4.49297 21.6487 3.43384 19.8873C3.0022 19.1696 2.05774 18.9313 1.32588 19.3539C0.592729 19.7765 0.349205 20.7016 0.780847 21.4206C2.00362 23.4526 3.44801 25.1263 5.11016 26.3671C5.45418 26.6248 5.80723 26.8632 6.168 27.0784C5.80723 27.2935 5.45418 27.5306 5.11016 27.7883C4.38345 28.332 3.63484 28.8758 2.89139 29.5651C2.14922 30.2532 1.42509 31.0907 0.780847 32.164C0.349205 32.8817 0.592729 33.8081 1.32588 34.2307C2.05774 34.6534 3.0022 34.415 3.43384 33.6973C3.92991 32.874 4.43886 32.289 5.01094 31.7543C5.58174 31.2221 6.23114 30.7454 6.97589 30.19C7.33924 29.9207 7.70001 29.6875 8.06208 29.4891C8.01827 29.5664 7.97575 29.645 7.93323 29.7262C6.88827 31.6898 5.81239 34.415 5.80723 37.5189C5.80723 38.3513 6.49657 39.0265 7.34697 39.0265C8.19737 39.0265 8.88671 38.3513 8.88671 37.5189C8.88151 35.1224 9.75515 32.816 10.661 31.1255C10.9367 30.6101 11.2124 30.1527 11.4611 29.7674C11.724 30.172 12.0152 30.6565 12.3038 31.2054C13.1954 32.8881 14.0407 35.1584 14.0355 37.5189C14.0355 38.3513 14.7248 39.0265 15.5765 39.0265C16.4269 39.0265 17.1163 38.3513 17.1163 37.5189C17.1111 34.415 16.0339 31.6898 14.9903 29.7262C14.9465 29.645 14.9039 29.5664 14.8614 29.4891C15.2222 29.6875 15.5843 29.9207 15.9476 30.19C16.6911 30.7454 17.3405 31.2221 17.9126 31.7543C18.4846 32.289 18.9923 32.874 19.4884 33.696C19.7757 34.174 20.2898 34.4395 20.8168 34.4395C21.0822 34.4395 21.3515 34.3725 21.5976 34.2307C22.3295 33.8081 22.5743 32.8817 22.1427 32.164Z" fill="#3CA0FF"/>
<path d="M99.163 23.4235C99.163 24.7608 97.9587 25.6792 96.3796 25.6792C95.2352 25.6792 94.3468 25.1003 94.3468 24.0819V24.0425C94.3468 22.9446 95.2549 22.2854 96.7946 22.2854C97.7414 22.2854 98.551 22.4657 99.163 22.7052V23.4235ZM100.308 17.7141C99.5773 16.9556 98.4132 16.5366 96.8537 16.5366C95.4912 16.5366 94.4846 16.776 93.4977 17.1557C93.1425 17.2951 92.8464 17.6739 92.8464 18.1134C92.8464 18.6726 93.3008 19.1113 93.8529 19.1113C93.9719 19.1113 94.09 19.0916 94.2278 19.0514C94.88 18.7923 95.6298 18.6324 96.5379 18.6324C98.2155 18.6324 99.1236 19.4311 99.1236 20.9283V21.1874C98.314 20.9283 97.4854 20.7487 96.3205 20.7487C93.7742 20.7487 92.017 21.8663 92.017 24.1425V24.1819C92.017 26.2982 93.7545 27.4363 95.7085 27.4363C97.3074 27.4363 98.3935 26.7574 99.1039 25.8989V26.2982C99.1039 26.837 99.5773 27.3166 100.269 27.3166C100.92 27.3166 101.433 26.8173 101.433 26.1588V20.9677C101.433 19.5909 101.078 18.4725 100.308 17.7141ZM89.5699 12.5442C88.8989 12.5442 88.3853 13.0829 88.3853 13.7414V26.1187C88.3853 26.7976 88.9185 27.3166 89.5699 27.3166C90.2409 27.3166 90.7742 26.7976 90.7742 26.1187V13.7414C90.7742 13.0829 90.2409 12.5442 89.5699 12.5442ZM84.6158 22.0065C84.6158 23.8228 83.3919 25.3405 81.4575 25.3405C79.6019 25.3405 78.2795 23.8031 78.2795 21.9664V21.9262C78.2795 20.0903 79.5035 18.5726 81.4181 18.5726C83.2934 18.5726 84.6158 20.1092 84.6158 21.9664V22.0065ZM81.4575 16.4563C78.2598 16.4563 75.8907 18.9522 75.8907 21.9664V22.0065C75.8907 25.0003 78.2401 27.456 81.4181 27.456C84.6355 27.456 87.0039 24.9609 87.0039 21.9664V21.9262C87.0039 18.912 84.6552 16.4563 81.4575 16.4563ZM72.8316 22.0065C72.8316 23.8228 71.6077 25.3405 69.6733 25.3405C67.8177 25.3405 66.4953 23.8031 66.4953 21.9664V21.9262C66.4953 20.0903 67.7192 18.5726 69.6339 18.5726C71.5092 18.5726 72.8316 20.1092 72.8316 21.9664V22.0065ZM69.6733 16.4563C66.4756 16.4563 64.1064 18.9522 64.1064 21.9664V22.0065C64.1064 25.0003 66.4559 27.456 69.6339 27.456C72.8513 27.456 75.2196 24.9609 75.2196 21.9664V21.9262C75.2196 18.912 72.871 16.4563 69.6733 16.4563ZM60.9686 21.9664C60.9686 24.0425 59.6265 25.3405 57.9883 25.3405C56.3698 25.3405 54.9481 23.9827 54.9481 21.9664V21.9262C54.9481 19.9099 56.3698 18.5521 57.9883 18.5521C59.6068 18.5521 60.9686 19.8902 60.9686 21.9262V21.9664ZM58.5601 16.4563C56.8628 16.4563 55.7775 17.3352 55.0072 18.4332V13.7414C55.0072 13.0624 54.4748 12.5442 53.8029 12.5442C53.1319 12.5442 52.6191 13.0624 52.6191 13.7414V26.1187C52.6191 26.7771 53.1516 27.3166 53.8029 27.3166C54.4748 27.3166 55.0072 26.7771 55.0072 26.1187V25.5799C55.7381 26.5574 56.8234 27.4363 58.5601 27.4363C61.0277 27.4363 63.3968 25.4594 63.3968 21.9664V21.9262C63.3968 18.4127 61.008 16.4563 58.5601 16.4563ZM43.6774 21.2079C43.8948 19.5705 44.921 18.4332 46.3821 18.4332C47.9612 18.4332 48.8685 19.65 49.0269 21.2079H43.6774ZM46.4017 16.4563C43.4206 16.4563 41.3091 18.9317 41.3091 21.9467V21.9861C41.3091 25.2405 43.638 27.456 46.6577 27.456C48.277 27.456 49.4608 26.9173 50.4083 26.0588C50.5863 25.8792 50.7242 25.6193 50.7242 25.32C50.7242 24.7608 50.3099 24.3418 49.7767 24.3418C49.5002 24.3418 49.3427 24.4221 49.1647 24.5616C48.4936 25.1208 47.7045 25.4799 46.6979 25.4799C45.1581 25.4799 43.9539 24.5214 43.6971 22.8044H50.2311C50.8431 22.8044 51.3558 22.3255 51.3558 21.6466C51.3558 19.2113 49.7176 16.4563 46.4017 16.4563ZM36.2361 19.3909L40.5396 15.1992C40.8152 14.9393 40.9735 14.6597 40.9735 14.2809C40.9735 13.6815 40.5191 13.1428 39.848 13.1428C39.4141 13.1428 39.1179 13.3019 38.8415 13.602L32.2886 20.2699V14.3604C32.2886 13.6815 31.7553 13.1428 31.0843 13.1428C30.3936 13.1428 29.8604 13.6815 29.8604 14.3604V26.0982C29.8604 26.7771 30.3936 27.3166 31.0843 27.3166C31.7553 27.3166 32.2886 26.7771 32.2886 26.0982V23.2037L34.5388 21.0079L38.9801 26.7377C39.2361 27.0772 39.5322 27.3166 40.0064 27.3166C40.6971 27.3166 41.2303 26.7976 41.2303 26.1187C41.2303 25.739 41.0917 25.4996 40.8948 25.2405L36.2361 19.3909Z" fill="#3CA0FF"/>
</svg>
