<svg width="258" height="44" viewBox="0 0 258 44" fill="none" xmlns="http://www.w3.org/2000/svg">
<path d="M20.5948 43.3449L13.5233 31.9537L11.2269 34.4648V43.3449H0V0.0727874H11.2634V23.7287L19.5742 12.1555H31.4207L20.6677 25.8031L32.4778 43.3449H20.5583H20.5948ZM65.9398 43.3449H54.64V25.8031C54.7494 24.6022 54.3849 23.4012 53.5829 22.4549C53.2743 22.1257 52.9019 21.8624 52.4884 21.681C52.0749 21.4996 51.6288 21.4038 51.1772 21.3995C50.0472 21.4723 48.9901 21.909 48.1517 22.6369C47.0947 23.4739 46.2563 24.5658 45.7824 25.8395V43.3085H34.5555V12.1191H44.7253V16.7047C45.8553 14.9942 47.4956 13.6476 49.3911 12.847C51.651 11.9007 54.0568 11.464 56.499 11.5004C58.2487 11.4276 60.0348 11.7916 61.5657 12.665C62.7321 13.3565 63.7163 14.3755 64.4089 15.5401C65.065 16.6683 65.5024 17.9057 65.6847 19.2159C65.8669 20.3805 65.9763 21.5815 65.9763 22.7825V43.3449H65.9398ZM71.371 12.1555H82.6344V43.3449H71.371V12.1555ZM71.371 0.0727874H82.6344V9.60794H71.371V0.0727874ZM119.778 43.3449H108.515V25.8031C108.624 24.6022 108.259 23.4012 107.457 22.4549C107.12 22.1131 106.717 21.8433 106.272 21.6619C105.827 21.4805 105.35 21.3912 104.869 21.3995C104.432 21.3995 103.995 21.5451 103.594 21.727C103.083 21.9818 102.573 22.273 102.099 22.6005C101.589 23.0008 101.115 23.4739 100.714 23.9835C100.277 24.5294 99.9121 25.1481 99.657 25.8031V43.2721H88.3936V0H99.657V16.7047C100.714 15.0306 102.245 13.684 103.995 12.847C105.854 11.9371 107.895 11.464 109.973 11.5004C111.795 11.4276 113.581 11.828 115.185 12.665C116.388 13.3201 117.409 14.3027 118.138 15.5037C118.83 16.6319 119.268 17.8693 119.45 19.1431C119.632 20.3441 119.741 21.5815 119.741 22.8189V43.3085L119.778 43.3449ZM135.087 27.732C134.978 29.5153 135.525 31.2622 136.618 32.6452C138.55 34.8288 141.94 35.0471 144.127 33.0819C144.273 32.9363 144.455 32.7907 144.565 32.6452C145.658 31.2622 146.205 29.5153 146.096 27.732C146.205 25.9487 145.658 24.2018 144.565 22.8189C142.596 20.6352 139.206 20.4533 137.019 22.4185C136.873 22.5641 136.728 22.6733 136.618 22.8189C135.525 24.2018 134.978 25.9487 135.087 27.732ZM140.591 43.9636C138.076 44 135.561 43.5633 133.192 42.617C131.187 41.8164 129.365 40.6154 127.834 39.0505C126.376 37.5947 125.282 35.8114 124.553 33.8825C123.095 29.9156 123.095 25.5848 124.553 21.6179C125.282 19.689 126.376 17.9057 127.834 16.4136C129.365 14.885 131.151 13.6476 133.192 12.847C137.93 11.0637 143.179 11.0637 147.955 12.847C149.996 13.6476 151.818 14.8486 153.386 16.4136C154.807 17.8693 155.937 19.6526 156.63 21.5451C158.088 25.512 158.088 29.8428 156.63 33.8098C155.937 35.7386 154.807 37.4855 153.386 38.9777C151.855 40.5062 150.032 41.7436 148.027 42.5443C145.695 43.4905 143.143 43.9636 140.628 43.9272M178.318 34.4648C179.995 34.5376 181.635 33.8825 182.802 32.6816C183.968 31.4078 184.588 29.6973 184.478 27.9504C184.478 27.0405 184.333 26.1307 184.041 25.2936C183.786 24.493 183.385 23.7651 182.875 23.11C182.401 22.4913 181.781 21.9818 181.088 21.6179C180.396 21.2539 179.594 21.072 178.792 21.072C177.516 21.072 176.313 21.5451 175.329 22.3457C174.236 23.2192 173.397 24.3474 172.887 25.6576V31.2258C173.981 33.1547 176.022 34.3557 178.245 34.4285M181.562 44C176.86 44 173.507 42.1803 171.465 38.5409V43.4177H161.66V0.0727874H172.887V16.7775C173.762 15.1398 175.11 13.7932 176.751 12.9198C178.573 11.9735 180.578 11.5368 182.619 11.5732C184.478 11.5732 186.301 11.9735 187.941 12.8106C189.582 13.6476 191.04 14.8122 192.17 16.268C193.409 17.7965 194.357 19.5434 194.976 21.4359C195.669 23.5467 195.997 25.7304 195.997 27.914C195.997 30.0976 195.596 32.2812 194.83 34.3557C194.174 36.2117 193.19 37.9223 191.914 39.4144C190.639 40.8338 189.071 41.962 187.322 42.7626C185.499 43.5633 183.567 44 181.562 43.9636M209.958 27.732C209.848 29.5153 210.395 31.2622 211.489 32.6452C213.42 34.8288 216.81 35.0471 218.997 33.0819C219.143 32.9363 219.326 32.7907 219.435 32.6452C220.528 31.2622 221.075 29.5153 220.966 27.732C221.075 25.9487 220.528 24.2018 219.435 22.8189C217.467 20.6352 214.077 20.4533 211.89 22.4185C211.744 22.5641 211.598 22.6733 211.489 22.8189C210.395 24.2018 209.848 25.9487 209.958 27.732ZM215.462 43.9636C212.947 44 210.431 43.5633 208.062 42.617C206.057 41.8164 204.235 40.6154 202.704 39.0505C201.246 37.5947 200.152 35.8114 199.423 33.8825C197.965 29.9156 197.965 25.5848 199.423 21.6179C200.152 19.689 201.282 17.9057 202.74 16.4136C204.271 14.885 206.057 13.6476 208.099 12.847C212.837 11.0637 218.086 11.0637 222.861 12.847C224.866 13.6476 226.725 14.8486 228.22 16.4136C229.641 17.8693 230.771 19.6162 231.464 21.5451C232.922 25.512 232.922 29.8428 231.464 33.8098C230.735 35.7386 229.641 37.4855 228.183 38.9777C226.652 40.5062 224.83 41.7436 222.825 42.5443C220.492 43.4905 217.977 43.9636 215.462 43.9272M257.964 41.598C256.323 42.2895 254.61 42.8718 252.897 43.2721C251.147 43.7089 249.361 43.9636 247.539 43.9636C246.299 43.9636 245.096 43.818 243.93 43.4905C242.836 43.1993 241.816 42.6898 240.941 41.962C240.066 41.1977 239.374 40.2514 238.936 39.1596C238.389 37.8131 238.134 36.3573 238.207 34.9016V20.5988H234.343V12.1191H238.207V2.3292H249.47V12.1191H255.631V20.5988H249.507V30.9347C249.434 31.6989 249.653 32.4996 250.163 33.1183C250.637 33.555 251.293 33.7734 251.949 33.737C252.605 33.737 253.225 33.6278 253.845 33.4822C254.574 33.3003 255.303 33.0455 255.995 32.7543L258 41.6344L257.964 41.598Z" fill="white"/>
</svg>
