<svg width="147" height="26" viewBox="0 0 147 26" fill="none" xmlns="http://www.w3.org/2000/svg">
<g clip-path="url(#clip0_1122_3196)">
<rect x="0.625" width="26" height="26" rx="13" fill="black"/>
<ellipse cx="13.6248" cy="12.9999" rx="5.6875" ry="8.9375" transform="rotate(45 13.6248 12.9999)" fill="#6360E1"/>
<ellipse cx="13.625" cy="13" rx="5.6875" ry="8.9375" fill="#D7D7F9"/>
<ellipse cx="13.6256" cy="13" rx="5.6875" ry="8.9375" transform="rotate(-45 13.6256 13)" fill="white"/>
</g>
<path d="M41.1525 19.4968V14.244C41.1525 13.7646 41.1525 13.3462 41.1525 12.9887C41.1525 12.6231 41.1525 12.3184 41.1525 12.0746C41.1525 11.7578 41.1322 11.4287 41.0916 11.0875C41.0509 10.7381 40.9616 10.4171 40.8234 10.1246C40.6853 9.83214 40.47 9.59651 40.1775 9.41776C39.8931 9.23089 39.4991 9.13745 38.9953 9.13745C38.5078 9.13745 38.0934 9.23901 37.7522 9.44214C37.4191 9.63714 37.1428 9.9012 36.9234 10.2343C36.7122 10.5593 36.5578 10.9331 36.4603 11.3556C36.3628 11.77 36.3141 12.1965 36.3141 12.6353L35.2416 11.9162C35.2416 10.8518 35.4406 9.9012 35.8388 9.06433C36.2369 8.22745 36.8016 7.56526 37.5328 7.07776C38.2722 6.58214 39.1456 6.33433 40.1531 6.33433C41.1931 6.33433 42.0178 6.5537 42.6272 6.99245C43.2366 7.42308 43.6713 8.00808 43.9313 8.74745C44.1994 9.48683 44.3334 10.3156 44.3334 11.2337C44.3334 11.575 44.3334 12.03 44.3334 12.5987C44.3334 13.1593 44.3334 13.8215 44.3334 14.5853V19.4968H41.1525ZM33.1087 19.4968V6.5537H36.3141V19.4968H33.1087ZM49.1475 19.4968V14.2562C49.1475 13.7443 49.1475 13.3096 49.1475 12.9521C49.1475 12.5946 49.1475 12.294 49.1475 12.0503C49.1475 11.709 49.1272 11.3678 49.0866 11.0265C49.0459 10.6771 48.9566 10.3643 48.8184 10.0881C48.6803 9.8037 48.465 9.5762 48.1725 9.40558C47.88 9.22683 47.4819 9.13745 46.9781 9.13745C46.4825 9.13745 46.0641 9.23495 45.7228 9.42995C45.3897 9.62495 45.1216 9.88495 44.9184 10.21C44.7153 10.535 44.565 10.9006 44.4675 11.3068C44.3781 11.7131 44.3334 12.1193 44.3334 12.5256L43.2609 11.8187C43.2609 10.7868 43.4559 9.85651 43.8459 9.02776C44.2359 8.19901 44.7966 7.54495 45.5278 7.06557C46.2591 6.57808 47.1284 6.33433 48.1359 6.33433C49.1516 6.33433 49.9681 6.54151 50.5856 6.95589C51.2031 7.37026 51.65 7.93901 51.9263 8.66214C52.2106 9.37714 52.3528 10.1937 52.3528 11.1118C52.3528 11.4693 52.3528 11.9243 52.3528 12.4768C52.3528 13.0293 52.3528 13.6834 52.3528 14.439V19.4968H49.1475ZM60.5798 19.7528C59.2148 19.7528 58.0123 19.4684 56.9723 18.8996C55.9323 18.3228 55.1157 17.5265 54.5226 16.5109C53.9376 15.4953 53.6451 14.3334 53.6451 13.0253C53.6451 11.709 53.9376 10.5512 54.5226 9.55183C55.1157 8.54433 55.9323 7.7562 56.9723 7.18745C58.0123 6.6187 59.2148 6.33433 60.5798 6.33433C61.9448 6.33433 63.1473 6.6187 64.1873 7.18745C65.2273 7.7562 66.0398 8.54433 66.6248 9.55183C67.2179 10.5512 67.5144 11.709 67.5144 13.0253C67.5144 14.3334 67.2179 15.4953 66.6248 16.5109C66.0398 17.5265 65.2273 18.3228 64.1873 18.8996C63.1473 19.4684 61.9448 19.7528 60.5798 19.7528ZM60.5798 17.1325C61.3191 17.1325 61.9651 16.9618 62.5176 16.6206C63.0701 16.2793 63.5007 15.804 63.8094 15.1946C64.1182 14.5771 64.2726 13.854 64.2726 13.0253C64.2726 12.1965 64.1182 11.4815 63.8094 10.8803C63.5007 10.2709 63.0701 9.79964 62.5176 9.46651C61.9651 9.13339 61.3191 8.96683 60.5798 8.96683C59.8485 8.96683 59.2026 9.13339 58.6419 9.46651C58.0894 9.79964 57.6588 10.2709 57.3501 10.8803C57.0413 11.4815 56.8869 12.1965 56.8869 13.0253C56.8869 13.854 57.0413 14.5771 57.3501 15.1946C57.6588 15.804 58.0894 16.2793 58.6419 16.6206C59.2026 16.9618 59.8485 17.1325 60.5798 17.1325ZM76.9914 19.4968V14.244C76.9914 13.7646 76.9914 13.3462 76.9914 12.9887C76.9914 12.6231 76.9914 12.3184 76.9914 12.0746C76.9914 11.7578 76.9711 11.4287 76.9304 11.0875C76.8898 10.7381 76.8004 10.4171 76.6623 10.1246C76.5242 9.83214 76.3089 9.59651 76.0164 9.41776C75.732 9.23089 75.3379 9.13745 74.8342 9.13745C74.3467 9.13745 73.9323 9.23901 73.5911 9.44214C73.2579 9.63714 72.9817 9.9012 72.7623 10.2343C72.5511 10.5593 72.3967 10.9331 72.2992 11.3556C72.2017 11.77 72.1529 12.1965 72.1529 12.6353L71.0804 11.9162C71.0804 10.8518 71.2795 9.9012 71.6776 9.06433C72.0757 8.22745 72.6404 7.56526 73.3717 7.07776C74.1111 6.58214 74.9845 6.33433 75.992 6.33433C77.032 6.33433 77.8567 6.5537 78.4661 6.99245C79.0754 7.42308 79.5101 8.00808 79.7701 8.74745C80.0382 9.48683 80.1723 10.3156 80.1723 11.2337C80.1723 11.575 80.1723 12.03 80.1723 12.5987C80.1723 13.1593 80.1723 13.8215 80.1723 14.5853V19.4968H76.9914ZM68.9476 19.4968V6.5537H72.1529V19.4968H68.9476ZM84.9864 19.4968V14.2562C84.9864 13.7443 84.9864 13.3096 84.9864 12.9521C84.9864 12.5946 84.9864 12.294 84.9864 12.0503C84.9864 11.709 84.9661 11.3678 84.9254 11.0265C84.8848 10.6771 84.7954 10.3643 84.6573 10.0881C84.5192 9.8037 84.3039 9.5762 84.0114 9.40558C83.7189 9.22683 83.3207 9.13745 82.817 9.13745C82.3214 9.13745 81.9029 9.23495 81.5617 9.42995C81.2286 9.62495 80.9604 9.88495 80.7573 10.21C80.5542 10.535 80.4039 10.9006 80.3064 11.3068C80.217 11.7131 80.1723 12.1193 80.1723 12.5256L79.0998 11.8187C79.0998 10.7868 79.2948 9.85651 79.6848 9.02776C80.0748 8.19901 80.6354 7.54495 81.3667 7.06557C82.0979 6.57808 82.9673 6.33433 83.9748 6.33433C84.9904 6.33433 85.807 6.54151 86.4245 6.95589C87.042 7.37026 87.4889 7.93901 87.7651 8.66214C88.0495 9.37714 88.1917 10.1937 88.1917 11.1118C88.1917 11.4693 88.1917 11.9243 88.1917 12.4768C88.1917 13.0293 88.1917 13.6834 88.1917 14.439V19.4968H84.9864ZM91.2511 14.0612V11.7821H100.306L99.9408 12.3915C99.9408 12.3428 99.9408 12.29 99.9408 12.2331C99.9408 12.1681 99.9408 12.1153 99.9408 12.0746C99.9408 11.514 99.8149 10.99 99.563 10.5025C99.3111 10.0068 98.9292 9.6087 98.4174 9.30808C97.9055 8.99933 97.2555 8.84495 96.4674 8.84495C95.6874 8.84495 95.0089 9.01151 94.4321 9.34464C93.8633 9.66964 93.4205 10.1409 93.1036 10.7584C92.7949 11.3759 92.6405 12.1153 92.6405 12.9765C92.6405 13.8621 92.7908 14.6259 93.0914 15.2678C93.3921 15.9015 93.8308 16.389 94.4077 16.7303C94.9927 17.0634 95.7036 17.23 96.5405 17.23C97.1092 17.23 97.6008 17.1771 98.0152 17.0715C98.4296 16.9659 98.7667 16.8237 99.0267 16.645C99.2949 16.4581 99.4939 16.259 99.6239 16.0478C99.7621 15.8365 99.8433 15.6253 99.8677 15.414H103.061C103.012 15.9584 102.829 16.4906 102.512 17.0106C102.204 17.5225 101.769 17.9896 101.208 18.4121C100.648 18.8265 99.9652 19.1596 99.1608 19.4115C98.3646 19.6553 97.4546 19.7771 96.4308 19.7771C95.0414 19.7771 93.8267 19.4928 92.7867 18.924C91.7467 18.3553 90.9342 17.5631 90.3492 16.5475C89.7724 15.5318 89.4839 14.37 89.4839 13.0618C89.4839 11.7212 89.7764 10.5471 90.3614 9.53964C90.9546 8.53214 91.7752 7.74808 92.8233 7.18745C93.8714 6.6187 95.0739 6.33433 96.4308 6.33433C97.8283 6.33433 99.0349 6.6187 100.05 7.18745C101.074 7.7562 101.862 8.54839 102.415 9.56401C102.967 10.5715 103.244 11.7456 103.244 13.0862C103.244 13.2568 103.24 13.4396 103.231 13.6346C103.223 13.8296 103.211 13.9718 103.195 14.0612H91.2511ZM113.82 19.4968V13.7565C113.82 13.4315 113.82 13.1471 113.82 12.9034C113.82 12.6515 113.82 12.424 113.82 12.2209C113.82 11.6359 113.735 11.1118 113.564 10.6487C113.402 10.1775 113.117 9.80776 112.711 9.53964C112.313 9.27151 111.761 9.13745 111.054 9.13745C110.436 9.13745 109.888 9.28776 109.408 9.58839C108.929 9.88089 108.551 10.2871 108.275 10.8071C108.007 11.319 107.873 11.9121 107.873 12.5865L106.788 11.9162C106.788 10.8356 107.032 9.87683 107.519 9.03995C108.015 8.19495 108.677 7.53276 109.506 7.05339C110.335 6.57401 111.253 6.33433 112.26 6.33433C113.3 6.33433 114.174 6.53745 114.881 6.9437C115.596 7.34995 116.132 7.92683 116.489 8.67433C116.855 9.42183 117.038 10.2993 117.038 11.3068C117.038 11.6968 117.038 12.1356 117.038 12.6231C117.038 13.1106 117.038 13.59 117.038 14.0612V19.4968H113.82ZM104.667 19.4968V6.5537H107.873V19.4968H104.667ZM125.296 19.765C123.931 19.765 122.724 19.4846 121.676 18.924C120.628 18.3634 119.807 17.5753 119.214 16.5596C118.621 15.544 118.325 14.3537 118.325 12.9887C118.325 11.6318 118.621 10.4537 119.214 9.45433C119.807 8.45495 120.628 7.68714 121.676 7.15089C122.724 6.60651 123.931 6.33433 125.296 6.33433C126.32 6.33433 127.225 6.48464 128.014 6.78526C128.802 7.08589 129.464 7.48808 130 7.99183C130.545 8.48745 130.959 9.03589 131.243 9.63714C131.528 10.2303 131.67 10.8234 131.67 11.4165C131.67 11.4328 131.67 11.449 131.67 11.4653C131.67 11.4815 131.67 11.4978 131.67 11.514H128.489C128.489 11.4734 128.485 11.4287 128.477 11.38C128.469 11.3312 128.46 11.2825 128.452 11.2337C128.387 10.8193 128.221 10.4456 127.953 10.1125C127.685 9.7712 127.327 9.49901 126.88 9.29589C126.433 9.09276 125.893 8.9912 125.259 8.9912C124.585 8.9912 123.967 9.14151 123.407 9.44214C122.854 9.73464 122.411 10.1775 122.078 10.7706C121.753 11.3637 121.591 12.1031 121.591 12.9887C121.591 13.8662 121.753 14.6137 122.078 15.2312C122.403 15.8406 122.842 16.3078 123.395 16.6328C123.955 16.9496 124.577 17.1081 125.259 17.1081C125.982 17.1081 126.571 16.9984 127.026 16.779C127.49 16.5515 127.839 16.2509 128.075 15.8771C128.31 15.4953 128.444 15.0809 128.477 14.634H131.67C131.67 15.2353 131.532 15.8406 131.255 16.45C130.979 17.0512 130.573 17.6037 130.037 18.1075C129.5 18.6112 128.834 19.0134 128.038 19.314C127.25 19.6146 126.336 19.765 125.296 19.765ZM134.298 14.0612V11.7821H143.353L142.987 12.3915C142.987 12.3428 142.987 12.29 142.987 12.2331C142.987 12.1681 142.987 12.1153 142.987 12.0746C142.987 11.514 142.862 10.99 142.61 10.5025C142.358 10.0068 141.976 9.6087 141.464 9.30808C140.952 8.99933 140.302 8.84495 139.514 8.84495C138.734 8.84495 138.056 9.01151 137.479 9.34464C136.91 9.66964 136.467 10.1409 136.15 10.7584C135.842 11.3759 135.687 12.1153 135.687 12.9765C135.687 13.8621 135.837 14.6259 136.138 15.2678C136.439 15.9015 136.877 16.389 137.454 16.7303C138.039 17.0634 138.75 17.23 139.587 17.23C140.156 17.23 140.647 17.1771 141.062 17.0715C141.476 16.9659 141.813 16.8237 142.073 16.645C142.342 16.4581 142.541 16.259 142.671 16.0478C142.809 15.8365 142.89 15.6253 142.914 15.414H146.107C146.059 15.9584 145.876 16.4906 145.559 17.0106C145.25 17.5225 144.816 17.9896 144.255 18.4121C143.694 18.8265 143.012 19.1596 142.207 19.4115C141.411 19.6553 140.501 19.7771 139.477 19.7771C138.088 19.7771 136.873 19.4928 135.833 18.924C134.793 18.3553 133.981 17.5631 133.396 16.5475C132.819 15.5318 132.531 14.37 132.531 13.0618C132.531 11.7212 132.823 10.5471 133.408 9.53964C134.001 8.53214 134.822 7.74808 135.87 7.18745C136.918 6.6187 138.121 6.33433 139.477 6.33433C140.875 6.33433 142.082 6.6187 143.097 7.18745C144.121 7.7562 144.909 8.54839 145.462 9.56401C146.014 10.5715 146.29 11.7456 146.29 13.0862C146.29 13.2568 146.286 13.4396 146.278 13.6346C146.27 13.8296 146.258 13.9718 146.242 14.0612H134.298Z" fill="black"/>
<defs>
<clipPath id="clip0_1122_3196">
<rect width="26" height="26" fill="white" transform="translate(0.625)"/>
</clipPath>
</defs>
</svg>
