<?xml version="1.0" encoding="UTF-8"?> <svg xmlns="http://www.w3.org/2000/svg" width="896" height="232" viewBox="0 0 896 232" fill="none"><g clip-path="url(#clip0_65_1838)"><path d="M167.931 0H64.3549C47.2881 0.00381851 30.9214 6.78528 18.8533 18.8533C6.78528 30.9214 0.00381851 47.2881 0 64.3549L0 167.931C-4.27332e-07 185 6.77977 201.37 18.8482 213.442C30.9167 225.513 47.2856 232.296 64.3549 232.3H167.931C185.002 232.3 201.375 225.518 213.447 213.447C225.518 201.375 232.3 185.002 232.3 167.931V64.3549C232.296 47.2856 225.513 30.9167 213.442 18.8482C201.37 6.77977 185 -4.27332e-07 167.931 0ZM65.6657 177.941C65.6429 180.726 64.5205 183.389 62.543 185.351C60.5655 187.312 57.8931 188.413 55.1079 188.412H55.0215C52.22 188.39 49.5422 187.256 47.5761 185.26C45.6101 183.264 44.5165 180.57 44.5357 177.768L44.867 137.554C44.886 134.766 46.0067 132.099 47.9846 130.135C49.9625 128.17 52.6371 127.068 55.4248 127.068H55.5112C56.8977 127.079 58.2683 127.363 59.5449 127.905C60.8215 128.446 61.9791 129.233 62.9514 130.221C63.9238 131.21 64.692 132.38 65.212 133.665C65.7321 134.95 65.9939 136.326 65.9825 137.712L65.6657 177.941ZM106.86 70.2604V150.258C106.86 153.077 105.74 155.78 103.746 157.774C101.753 159.767 99.0491 160.887 96.2299 160.887C93.4107 160.887 90.707 159.767 88.7135 157.774C86.7201 155.78 85.6001 153.077 85.6001 150.258V65.7089C85.6001 62.8897 86.7201 60.1859 88.7135 58.1925C90.707 56.199 93.4107 55.0791 96.2299 55.0791C99.0491 55.0791 101.753 56.199 103.746 58.1925C105.74 60.1859 106.86 62.8897 106.86 65.7089V70.2604ZM149.883 173.217C149.937 174.698 149.691 176.175 149.161 177.56C148.631 178.944 147.828 180.208 146.798 181.275C145.769 182.342 144.536 183.19 143.171 183.77C141.807 184.35 140.34 184.648 138.857 184.648C137.375 184.648 135.907 184.35 134.543 183.77C133.179 183.19 131.945 182.342 130.916 181.275C129.887 180.208 129.083 178.944 128.553 177.56C128.023 176.175 127.778 174.698 127.831 173.217V98.016C127.934 95.1607 129.141 92.4568 131.198 90.4733C133.254 88.4898 136 87.3814 138.857 87.3814C141.714 87.3814 144.46 88.4898 146.517 90.4733C148.573 92.4568 149.78 95.1607 149.883 98.016V173.217ZM181.182 134.327H181.081C178.278 134.327 175.589 133.219 173.6 131.244C171.611 129.268 170.485 126.587 170.466 123.784L169.861 54.1572C169.798 52.7306 170.023 51.3059 170.523 49.9682C171.023 48.6305 171.787 47.4073 172.77 46.3715C173.753 45.3357 174.935 44.5086 176.245 43.9397C177.555 43.3707 178.966 43.0714 180.394 43.0598C181.822 43.0482 183.237 43.3244 184.556 43.872C185.875 44.4196 187.07 45.2274 188.07 46.247C189.07 47.2667 189.854 48.4773 190.376 49.8067C190.897 51.1361 191.146 52.5569 191.106 53.9844L191.711 123.597C191.724 124.993 191.462 126.377 190.94 127.672C190.419 128.967 189.647 130.146 188.669 131.143C187.691 132.139 186.527 132.933 185.242 133.48C183.958 134.026 182.578 134.314 181.182 134.327Z" fill="#FF4981"></path><path d="M882.609 167.806C880.819 165.103 877.361 162.892 872.359 162.892C862.911 162.892 857.539 170.447 857.539 179.599C857.539 188.689 862.911 196.244 872.359 196.244C877.361 196.244 881.127 194.279 883.165 190.962V195.507H889.958V149.44H882.609V167.806ZM882.918 179.599C882.918 185.311 879.522 189.795 873.903 189.795C868.345 189.795 864.887 185.311 864.887 179.599C864.887 173.764 868.345 169.341 873.903 169.341C879.522 169.341 882.918 173.764 882.918 179.599Z" fill="white"></path><path d="M855.708 163.383C855.708 163.383 854.967 163.322 854.658 163.322C849.101 163.322 846.384 166.025 845.21 168.052V163.629H838.418V195.507H845.766V178.923C845.766 172.781 848.854 170.079 854.041 170.079C854.843 170.079 855.708 170.201 855.708 170.201V163.383Z" fill="white"></path><path d="M825.023 180.52V182.547C825.023 186.846 822.121 190.532 816.193 190.532C812.673 190.532 810.512 189.365 810.512 186.355C810.512 184.144 811.994 182.485 816.502 181.81L825.023 180.52ZM814.711 196.244C819.836 196.244 823.541 194.586 825.702 191.33C825.702 193.91 826.073 195.507 826.134 195.507H833.112C832.556 194.217 832.186 191.576 832.186 189.488V174.808C832.186 167.498 827.74 162.892 818.354 162.892C808.66 162.892 804.831 168.051 804.214 173.641H811.377C811.87 170.692 814.155 168.911 818.169 168.911C822.553 168.911 825.023 170.877 825.023 174.746V175.238L815.761 176.527C807.301 177.694 803.473 181.196 803.473 186.601C803.473 192.067 806.745 196.244 814.711 196.244Z" fill="white"></path><path d="M784.025 196.244C794.275 196.244 800.697 188.566 800.697 179.599C800.697 170.631 794.275 162.892 784.025 162.892C773.836 162.892 767.414 170.631 767.414 179.599C767.414 188.566 773.836 196.244 784.025 196.244ZM774.762 179.599C774.762 173.395 778.714 169.341 784.025 169.341C789.397 169.341 793.349 173.395 793.349 179.599C793.349 185.741 789.397 189.795 784.025 189.795C778.714 189.795 774.762 185.741 774.762 179.599Z" fill="white"></path><path d="M739.606 167.806V149.44H732.258V195.507H739.05V190.962C741.15 194.279 744.916 196.244 749.856 196.244C759.366 196.244 764.738 188.689 764.738 179.599C764.738 170.447 759.366 162.892 749.856 162.892C744.916 162.892 741.397 165.103 739.606 167.806ZM739.359 179.599C739.359 173.764 742.755 169.341 748.374 169.341C753.932 169.341 757.39 173.764 757.39 179.599C757.39 185.311 753.932 189.795 748.374 189.795C742.755 189.795 739.359 185.311 739.359 179.599Z" fill="white"></path><path d="M726.007 188.998C726.007 188.998 724.957 189.305 723.722 189.305C721.19 189.305 720.141 188.076 720.141 185.558V169.465H726.13V163.63H720.141V155.338H712.792V163.63H707.914V169.465H712.792V186.295C712.792 192.314 715.633 195.693 722.178 195.693C724.648 195.693 726.007 195.324 726.007 195.324V188.998Z" fill="white"></path><path d="M674.178 179.599C674.178 188.812 680.723 196.244 690.171 196.244C699.68 196.244 704.497 189.672 705.361 183.96H697.828C696.963 187.399 694.061 189.795 690.109 189.795C684.86 189.795 681.526 185.557 681.526 179.599C681.526 173.579 684.86 169.341 690.109 169.341C694.061 169.341 696.963 171.736 697.828 175.176H705.361C704.497 169.464 699.68 162.892 690.171 162.892C680.723 162.892 674.178 170.324 674.178 179.599Z" fill="white"></path><path d="M661.808 181.993C661.808 187.214 658.967 189.978 654.397 189.978C649.951 189.978 648.161 187.091 648.161 182.73V163.628H640.812V183.713C640.812 191.145 644.826 196.243 652.607 196.243C657.794 196.243 661.005 193.909 662.363 191.391V195.506H669.156V163.628H661.808V181.993Z" fill="white"></path><path d="M627.818 167.806C626.028 165.103 622.57 162.892 617.568 162.892C608.12 162.892 602.748 170.447 602.748 179.599C602.748 188.689 608.12 196.244 617.568 196.244C622.57 196.244 626.336 194.279 628.374 190.962V195.507H635.167V149.44H627.818V167.806ZM628.127 179.599C628.127 185.311 624.731 189.795 619.112 189.795C613.554 189.795 610.096 185.311 610.096 179.599C610.096 173.764 613.554 169.341 619.112 169.341C624.731 169.341 628.127 173.764 628.127 179.599Z" fill="white"></path><path d="M583.107 196.244C593.357 196.244 599.779 188.566 599.779 179.599C599.779 170.631 593.357 162.892 583.107 162.892C572.918 162.892 566.496 170.631 566.496 179.599C566.496 188.566 572.918 196.244 583.107 196.244ZM573.844 179.599C573.844 173.395 577.796 169.341 583.107 169.341C588.479 169.341 592.431 173.395 592.431 179.599C592.431 185.741 588.479 189.795 583.107 189.795C577.796 189.795 573.844 185.741 573.844 179.599Z" fill="white"></path><path d="M565.659 163.383C565.659 163.383 564.918 163.322 564.609 163.322C559.052 163.322 556.335 166.025 555.162 168.052V163.629H548.369V195.507H555.717V178.923C555.717 172.781 558.805 170.079 563.992 170.079C564.794 170.079 565.659 170.201 565.659 170.201V163.383Z" fill="white"></path><path d="M518.702 191.33C520.492 194.094 524.012 196.244 528.952 196.244C538.462 196.244 543.834 188.689 543.834 179.599C543.834 170.447 538.462 162.892 528.952 162.892C524.012 162.892 520.245 164.919 518.146 168.174V163.629H511.354V208.283H518.702V191.33ZM518.455 179.599C518.455 173.702 521.851 169.218 527.47 169.218C533.028 169.218 536.486 173.702 536.486 179.599C536.486 185.311 533.028 189.795 527.47 189.795C521.851 189.795 518.455 185.311 518.455 179.599Z" fill="white"></path><path d="M424.417 181.758L400.65 205.429H448.184L424.417 181.758Z" fill="white"></path><path d="M454.285 205.36L480.998 178.755L454.354 152.219L427.641 178.824L454.285 205.36Z" fill="white"></path><path d="M448.323 152.08H400.65L424.487 175.821L448.323 152.08Z" fill="white"></path><path d="M313.394 167.579V149H306V195.602H312.835V191.004C314.948 194.359 318.738 196.347 323.709 196.347C333.278 196.347 338.683 188.705 338.683 179.509C338.683 170.25 333.278 162.608 323.709 162.608C318.738 162.608 315.196 164.845 313.394 167.579ZM313.146 179.509C313.146 173.606 316.563 169.132 322.217 169.132C327.81 169.132 331.289 173.606 331.289 179.509C331.289 185.287 327.81 189.823 322.217 189.823C316.563 189.823 313.146 185.287 313.146 179.509Z" fill="white"></path><path d="M353.233 195.291L352.488 197.093C350.624 201.753 348.387 202.561 345.901 202.561C344.907 202.561 344.037 202.499 344.037 202.499V209.085C344.037 209.085 344.907 209.21 346.15 209.21C352.053 209.21 355.905 206.6 359.198 198.46L373.49 163.353H365.785L356.899 186.716L348.138 163.353H340.247L353.233 195.291Z" fill="white"></path><path d="M320.281 108.96C315.379 107.621 310.786 105.335 306.762 102.232C305.263 101.031 304.292 99.2931 304.056 97.3873C303.82 95.4815 304.337 93.5588 305.497 92.0284C305.901 91.4569 306.435 90.9889 307.054 90.6622C307.673 90.3355 308.361 90.1594 309.061 90.1481C310.838 90.2556 312.553 90.8405 314.025 91.8413C317.324 94.2664 321.013 96.1108 324.932 97.295C329.03 98.4742 333.278 99.0476 337.542 98.9971C343.435 98.9971 347.959 97.9664 351.114 95.9049C352.629 94.952 353.864 93.6145 354.694 92.0287C355.524 90.4429 355.918 88.6655 355.837 86.8776C355.837 83.8061 354.352 81.4298 351.381 79.7485C348.411 78.0672 343.516 76.478 336.695 74.9809C330.75 73.8079 324.944 72.0158 319.372 69.634C315.393 67.9778 311.922 65.3003 309.311 61.8722C307.047 58.7235 305.915 54.7253 305.915 49.8775C305.858 45.0572 307.344 40.3449 310.157 36.4301C313.174 32.316 317.261 29.1075 321.974 27.1534C327.356 24.867 333.157 23.7318 339.004 23.8205C350.553 23.8205 359.966 26.892 367.244 33.0349C368.145 33.7555 368.903 34.638 369.481 35.637C370.037 36.869 370.252 38.2279 370.103 39.5715C369.954 40.9151 369.447 42.194 368.634 43.2741C368.229 43.8456 367.696 44.3136 367.076 44.6403C366.457 44.967 365.769 45.1431 365.069 45.1544C364.306 45.1606 363.546 45.0371 362.824 44.789C361.878 44.4231 360.965 43.9759 360.097 43.4523C357.14 41.2464 353.9 39.448 350.464 38.1055C346.783 36.8352 342.905 36.2316 339.012 36.3232C333.517 36.3232 329.174 37.4342 325.984 39.6561C324.461 40.6639 323.222 42.0447 322.385 43.667C321.547 45.2893 321.139 47.0991 321.199 48.9239C321.147 50.4618 321.515 51.9846 322.262 53.3297C323.009 54.6748 324.108 55.7917 325.44 56.561C328.262 58.3433 333.068 60.0008 339.859 61.5336C345.852 62.7587 351.715 64.549 357.37 66.8804C361.383 68.5049 364.924 71.1091 367.671 74.4551C370.131 77.7776 371.388 81.8376 371.236 85.9686C371.316 90.7275 369.849 95.3837 367.057 99.2377C364.052 103.268 359.99 106.386 355.32 108.247C349.8 110.478 343.887 111.572 337.934 111.464C331.959 111.497 326.011 110.653 320.281 108.96Z" fill="white"></path><path d="M426.14 55.778C430.144 59.8594 432.143 66.0588 432.137 74.3761V103.944C432.188 104.89 432.042 105.837 431.707 106.724C431.373 107.611 430.857 108.418 430.194 109.095C429.473 109.748 428.628 110.251 427.71 110.574C426.792 110.897 425.819 111.033 424.847 110.975C423.904 111.01 422.962 110.857 422.078 110.525C421.194 110.193 420.384 109.689 419.697 109.041C419.027 108.378 418.504 107.582 418.16 106.704C417.816 105.826 417.66 104.886 417.701 103.944V101.271C416.379 104.363 414.106 106.954 411.213 108.667C408.112 110.486 404.568 111.411 400.974 111.341C397.239 111.39 393.545 110.56 390.191 108.917C387.091 107.424 384.452 105.121 382.554 102.251C380.7 99.449 379.728 96.1556 379.765 92.796C379.765 88.4413 380.876 85.0074 383.098 82.4944C385.319 79.9814 388.934 78.1635 393.943 77.0406C398.951 75.9059 405.86 75.3415 414.671 75.3475H417.701V72.5582C417.701 68.6015 416.851 65.7142 415.152 63.8963C413.453 62.0784 410.726 61.1694 406.971 61.1694C404.559 61.1804 402.16 61.5253 399.842 62.1942C397.418 62.8893 394.549 63.8815 391.234 65.1706C389.823 65.9996 388.259 66.5332 386.635 66.739C385.962 66.7581 385.293 66.6272 384.677 66.356C384.06 66.0847 383.512 65.6799 383.071 65.1706C382.108 64.0176 381.612 62.5455 381.681 61.0447C381.649 59.7782 382.01 58.533 382.714 57.4801C383.629 56.2764 384.809 55.3004 386.163 54.6284C389.357 52.9621 392.762 51.7389 396.286 50.9926C400.087 50.1212 403.972 49.6758 407.871 49.6648C416.117 49.6648 422.239 51.7055 426.238 55.7869L426.14 55.778ZM413.993 96.3784C416.6 93.5259 417.974 89.7593 417.816 85.8986V83.341H415.633C411.417 83.2681 407.202 83.5123 403.023 84.0717C400.053 84.5648 397.914 85.4144 396.607 86.6204C395.95 87.263 395.437 88.0378 395.103 88.8935C394.768 89.7492 394.618 90.6663 394.665 91.584C394.628 92.7793 394.852 93.9682 395.323 95.0673C395.795 96.1665 396.5 97.1493 397.391 97.9468C399.23 99.6115 401.64 100.502 404.12 100.433C405.96 100.498 407.793 100.169 409.495 99.468C411.198 98.7672 412.732 97.7108 413.993 96.3695" fill="white"></path><path d="M483.611 105.281C483.655 106.168 483.459 107.05 483.043 107.834C482.627 108.618 482.008 109.276 481.249 109.737C479.672 110.753 477.426 111.171 474.521 111.011L471.251 110.77C457.67 109.802 450.882 102.53 450.888 88.9553V62.4974H444.828C443.034 62.6177 441.255 62.1036 439.802 61.0448C439.198 60.523 438.723 59.8686 438.414 59.1328C438.105 58.3969 437.97 57.5996 438.02 56.803C437.971 56.0065 438.106 55.2093 438.415 54.4736C438.724 53.7379 439.199 53.0834 439.802 52.5612C441.255 51.5024 443.034 50.9883 444.828 51.1086H450.888V39.9604C450.842 38.9952 451.002 38.0313 451.357 37.1325C451.712 36.2337 452.254 35.4207 452.947 34.7473C454.48 33.3948 456.483 32.6974 458.525 32.8046C460.527 32.7142 462.485 33.4115 463.979 34.7473C464.672 35.4207 465.214 36.2337 465.569 37.1325C465.924 38.0313 466.083 38.9952 466.037 39.9604V51.1086H476.339C478.133 50.9883 479.912 51.5024 481.365 52.5612C481.967 53.0847 482.44 53.7394 482.749 54.4748C483.058 55.2102 483.195 56.0067 483.147 56.803C483.196 57.5994 483.06 58.3963 482.751 59.132C482.442 59.8676 481.968 60.5221 481.365 61.0448C479.912 62.1036 478.133 62.6177 476.339 62.4974H465.993V90.0069C465.993 95.9953 468.741 99.1886 474.236 99.5866L477.506 99.8273C481.546 100.071 483.566 101.889 483.566 105.281" fill="white"></path><path d="M493.726 36.8674C492.924 36.1181 492.293 35.2052 491.875 34.1904C491.456 33.1756 491.261 32.0827 491.302 30.9859C491.26 29.9022 491.456 28.8223 491.874 27.8218C492.293 26.8214 492.925 25.9243 493.726 25.1935C495.605 23.7703 497.897 23 500.254 23C502.611 23 504.903 23.7703 506.782 25.1935C507.602 25.9162 508.251 26.8127 508.681 27.8178C509.111 28.8229 509.312 29.9113 509.268 31.0037C509.299 32.1023 509.093 33.1946 508.663 34.2064C508.234 35.2182 507.593 36.1258 506.782 36.8674C504.908 38.3177 502.606 39.1046 500.236 39.1046C497.867 39.1046 495.564 38.3177 493.691 36.8674H493.726ZM494.849 109.219C494.126 108.537 493.562 107.705 493.195 106.781C492.829 105.857 492.67 104.864 492.728 103.872V57.0428C492.658 56.0495 492.812 55.0531 493.179 54.1274C493.546 53.2018 494.117 52.3707 494.849 51.696C496.369 50.4643 498.286 49.8305 500.241 49.9137C502.214 49.8339 504.149 50.4665 505.694 51.696C506.442 52.3615 507.028 53.1894 507.406 54.1162C507.785 55.043 507.946 56.0441 507.878 57.0428V103.828C507.934 104.825 507.767 105.822 507.389 106.747C507.011 107.672 506.432 108.501 505.694 109.175C504.17 110.451 502.228 111.12 500.241 111.055C498.271 111.128 496.346 110.457 494.849 109.175" fill="white"></path><path d="M521.331 106.127C520.141 105.505 519.148 104.563 518.463 103.408C517.779 102.252 517.429 100.929 517.455 99.5862C517.391 98.1522 517.868 96.7466 518.792 95.6474C519.19 95.1673 519.69 94.7822 520.255 94.5201C520.821 94.258 521.438 94.1256 522.062 94.1324C523.434 94.1324 525.333 94.783 527.756 96.0662C530.061 97.1696 532.444 98.1019 534.886 98.8555C537.552 99.5711 540.307 99.8982 543.066 99.8268C546.453 99.8268 549.096 99.2624 550.997 98.1337C551.864 97.6864 552.59 97.0071 553.093 96.1716C553.597 95.3361 553.859 94.3772 553.849 93.4017C553.911 92.2028 553.498 91.0277 552.699 90.1312C551.507 89.0893 550.097 88.3253 548.573 87.8945C545.609 86.9436 542.595 86.1523 539.546 85.524C532.352 84.0685 527.201 82.01 524.094 79.3484C520.987 76.6869 519.433 73.0094 519.433 68.3161C519.402 64.8478 520.507 61.4645 522.579 58.6829C524.81 55.7144 527.807 53.4099 531.25 52.0172C535.224 50.3827 539.491 49.5791 543.788 49.6556C547.098 49.6441 550.394 50.0726 553.591 50.93C556.576 51.7113 559.423 52.9498 562.03 54.6015C564.614 56.2233 565.906 58.365 565.906 61.0266C565.953 62.4963 565.48 63.9355 564.569 65.0902C564.189 65.5975 563.695 66.009 563.127 66.2921C562.559 66.5752 561.933 66.722 561.299 66.721C560.403 66.7213 559.517 66.5362 558.697 66.1774C557.806 65.812 556.772 65.2862 555.48 64.5466C553.522 63.5055 551.498 62.5946 549.42 61.8197C547.385 61.1682 545.255 60.8669 543.12 60.9286C540.631 60.7833 538.158 61.4054 536.035 62.7108C535.212 63.2457 534.539 63.9829 534.082 64.852C533.625 65.721 533.398 66.6929 533.424 67.6745C533.396 68.6152 533.632 69.545 534.104 70.359C534.577 71.173 535.267 71.8389 536.097 72.2817C537.88 73.3332 541.314 74.3848 546.399 75.4363C550.775 76.2383 555.045 77.5389 559.125 79.3128C561.815 80.4438 564.114 82.3402 565.737 84.7666C567.16 87.3156 567.851 90.2084 567.733 93.1255C567.789 95.7237 567.192 98.2945 565.996 100.602C564.8 102.909 563.044 104.88 560.889 106.332C556.32 109.647 550.24 111.305 542.647 111.305C533.837 111.305 526.726 109.567 521.313 106.092" fill="white"></path><path d="M660.572 26.9759C661.409 27.8788 662.059 28.9378 662.486 30.0923C662.913 31.2468 663.107 32.4742 663.059 33.704V102.536C663.122 103.687 662.95 104.839 662.555 105.922C662.16 107.005 661.549 107.996 660.76 108.836C659.96 109.614 659.01 110.219 657.968 110.616C656.926 111.013 655.814 111.193 654.7 111.144C653.604 111.186 652.511 111.003 651.489 110.606C650.466 110.209 649.536 109.607 648.756 108.836C647.966 107.996 647.355 107.005 646.96 105.922C646.565 104.839 646.394 103.687 646.457 102.536V59.761L629.249 92.1183C628.376 93.9084 627.112 95.4798 625.551 96.7166C624.147 97.6694 622.489 98.1788 620.792 98.1788C619.095 98.1788 617.437 97.6694 616.033 96.7166C614.445 95.4936 613.161 93.9198 612.282 92.1183L595.074 60.3224V102.491C595.123 103.632 594.944 104.772 594.548 105.843C594.152 106.914 593.546 107.895 592.766 108.729C591.974 109.52 591.026 110.138 589.983 110.545C588.94 110.951 587.824 111.137 586.706 111.091C585.611 111.132 584.52 110.948 583.499 110.551C582.479 110.154 581.55 109.552 580.771 108.783C579.981 107.943 579.37 106.951 578.975 105.868C578.58 104.785 578.409 103.633 578.472 102.482V33.6595C578.382 31.1919 579.273 28.7892 580.949 26.9759C581.78 26.097 582.788 25.4043 583.906 24.9435C585.024 24.4827 586.228 24.2642 587.437 24.3025C591.292 24.3025 594.242 26.3818 596.286 30.5405L620.845 77.165L645.37 30.5405C647.544 26.3818 650.452 24.3025 654.094 24.3025C655.301 24.2643 656.503 24.4829 657.62 24.9438C658.737 25.4046 659.743 26.0973 660.572 26.9759Z" fill="white"></path><path d="M727.935 94.612C728.996 96.0466 729.534 97.8016 729.459 99.5846C729.458 100.951 729.035 102.283 728.247 103.399C727.363 104.64 726.2 105.656 724.851 106.366C721.809 107.926 718.594 109.123 715.272 109.931C711.992 110.809 708.615 111.276 705.22 111.321C699.353 111.467 693.54 110.176 688.288 107.56C683.604 105.184 679.74 101.459 677.193 96.8666C674.52 91.8139 673.194 86.1573 673.343 80.4429C673.232 74.8397 674.525 69.2978 677.104 64.3222C679.481 59.7648 683.091 55.9669 687.521 53.3611C692.118 50.6932 697.357 49.3313 702.671 49.4223C707.658 49.3083 712.583 50.5396 716.929 52.9869C721.023 55.3792 724.328 58.9167 726.438 63.1637C728.793 67.9826 729.952 73.2985 729.815 78.6606C729.922 80.1278 729.466 81.5806 728.541 82.7242C728.081 83.1982 727.525 83.5678 726.91 83.8076C726.295 84.0475 725.635 84.1521 724.976 84.1144H691.042C691.6 88.8671 693.052 92.3218 695.399 94.4784C697.746 96.6349 701.114 97.6894 705.505 97.6419C707.637 97.6593 709.761 97.359 711.805 96.7508C713.906 96.0945 715.97 95.3271 717.99 94.4516C719.112 93.9615 720.209 93.5605 721.26 93.1773C722.153 92.843 723.096 92.6593 724.049 92.6337C724.812 92.617 725.566 92.784 726.25 93.1206C726.935 93.4571 727.527 93.9534 727.979 94.5675L727.935 94.612ZM694.811 65.347C692.708 67.5629 691.457 70.774 691.059 74.9802H714.416C714.178 70.7027 713.109 67.4709 711.208 65.2846C709.307 63.0983 706.634 62.0082 703.188 62.0141C701.635 61.9445 700.085 62.2057 698.641 62.7803C697.197 63.3548 695.891 64.2297 694.811 65.347Z" fill="white"></path><path d="M780.752 99.5868C781.377 100.292 781.846 101.12 782.131 102.017C782.416 102.915 782.51 103.862 782.407 104.798C782.303 105.734 782.005 106.638 781.532 107.452C781.058 108.265 780.419 108.971 779.656 109.523C777.803 110.711 775.129 111.195 771.636 110.976L768.241 110.735C754.101 109.6 747.032 102.207 747.032 88.5545V64.565H742.184C739.516 64.565 737.497 63.9709 736.124 62.7827C735.424 62.1544 734.876 61.3759 734.519 60.5055C734.163 59.6351 734.008 58.6954 734.066 57.7567C734 56.7987 734.151 55.8383 734.508 54.9466C734.864 54.055 735.417 53.255 736.124 52.6059C737.497 51.4177 739.516 50.8236 742.184 50.8236H747.032V41.4132C746.971 40.2462 747.162 39.0799 747.591 37.9929C748.02 36.906 748.677 35.9238 749.518 35.1128C751.393 33.492 753.826 32.6671 756.3 32.8137C758.737 32.6758 761.131 33.5015 762.965 35.1128C763.789 35.9341 764.43 36.9195 764.848 38.005C765.265 39.0905 765.45 40.2517 765.389 41.4132V50.8682H773.873C779.362 50.8682 782.107 53.1703 782.107 57.7745C782.165 58.7133 782.01 59.653 781.653 60.5233C781.297 61.3937 780.748 62.1722 780.049 62.8005C778.676 63.9887 776.618 64.5828 773.873 64.5828H765.389V89.8912C765.389 92.3151 765.954 94.1538 767.082 95.4074C768.397 96.7397 770.183 97.5015 772.055 97.5283L775.441 97.7689C777.865 97.9293 779.647 98.5234 780.788 99.5512" fill="white"></path><path d="M841.127 94.6121C842.182 96.0495 842.717 97.8032 842.642 99.5847C842.642 100.951 842.219 102.283 841.43 103.399C840.546 104.64 839.383 105.656 838.035 106.366C834.997 107.928 831.784 109.124 828.464 109.931C825.181 110.81 821.802 111.276 818.403 111.321C812.537 111.466 806.725 110.175 801.472 107.56C796.791 105.184 792.929 101.459 790.386 96.8667C787.705 91.8164 786.376 86.1587 786.527 80.443C786.42 74.8403 787.713 69.2994 790.288 64.3223C792.67 59.7686 796.279 55.9719 800.705 53.3612C805.303 50.6942 810.541 49.3323 815.855 49.4224C820.841 49.3075 825.767 50.5389 830.113 52.987C834.208 55.3816 837.515 58.9182 839.63 63.1638C841.986 67.9827 843.144 73.2987 843.008 78.6607C843.111 80.1275 842.656 81.579 841.733 82.7243C841.274 83.1984 840.718 83.5679 840.103 83.8078C839.488 84.0476 838.828 84.1523 838.169 84.1145H804.225C804.784 88.8673 806.236 92.3219 808.583 94.4785C810.93 96.635 814.295 97.6895 818.68 97.642C820.812 97.6601 822.936 97.3598 824.98 96.7509C827.081 96.0961 829.146 95.3286 831.164 94.4517C832.296 93.9616 833.383 93.5606 834.435 93.1774C835.328 92.8431 836.271 92.6594 837.224 92.6338C837.988 92.6171 838.744 92.7841 839.429 93.1206C840.115 93.4571 840.709 93.9534 841.163 94.5676L841.127 94.6121ZM807.986 65.3471C805.883 67.563 804.629 70.7741 804.225 74.9803H827.591C827.341 70.7028 826.269 67.471 824.374 65.2847C822.479 63.0984 819.805 62.0083 816.354 62.0142C814.802 61.9453 813.254 62.2069 811.812 62.7814C810.369 63.356 809.065 64.2305 807.986 65.3471Z" fill="white"></path><path d="M893.901 51.2871C895.321 52.5406 896.028 54.4209 896.022 56.928C896.022 59.5896 895.374 61.5679 894.079 62.863C892.784 64.1581 890.482 64.9691 887.173 65.2958L883.537 65.6612C879.099 66.1424 875.888 67.5979 873.904 70.0278C871.844 72.6901 870.793 75.9952 870.936 79.358V102.528C870.936 105.361 870.045 107.5 868.334 108.953C866.504 110.436 864.201 111.212 861.847 111.136C859.446 111.236 857.091 110.463 855.217 108.962C853.482 107.506 852.611 105.364 852.605 102.537V58.0152C852.54 56.8488 852.748 55.6834 853.212 54.6113C853.676 53.5393 854.384 52.5902 855.279 51.8396C857.09 50.3721 859.365 49.598 861.695 49.6563C863.909 49.5798 866.072 50.3366 867.755 51.7772C868.57 52.5141 869.211 53.4237 869.63 54.4397C870.05 55.4556 870.237 56.5523 870.179 57.6498V60.9292C871.487 57.6286 873.801 54.823 876.791 52.909C879.689 51.0706 883 49.9861 886.424 49.7543L888.117 49.6385C889.137 49.5062 890.174 49.5826 891.163 49.8629C892.153 50.1432 893.075 50.6217 893.874 51.2693" fill="white"></path></g><defs><clipPath id="clip0_65_1838"><rect width="896" height="232" fill="white"></rect></clipPath></defs></svg> 