<svg width="478" height="107" viewBox="0 0 478 107" fill="none" xmlns="http://www.w3.org/2000/svg">
<path d="M130.866 74.4159C130.866 83.2532 124.322 87.6719 111.246 87.6719C106.478 87.6719 102.31 87.1439 98.7485 86.1305L100.245 77.4185C103.929 78.7532 107.601 79.4052 111.246 79.4052C114.775 79.4052 117.235 79.1132 118.607 78.5186C119.967 77.9319 120.658 76.9452 120.658 75.5666C120.658 73.4186 118.182 71.3692 113.238 69.4238C108.906 67.7185 105.758 66.0359 103.782 64.3866C101.07 62.0892 99.7112 59.2719 99.7112 55.9452C99.7112 52.0332 101.174 48.8799 104.093 46.4959C107.005 44.1132 111.246 42.9212 116.811 42.9212C122.03 42.9212 126.117 43.3799 129.089 44.2839L127.599 53.0359C124.262 51.7332 120.671 51.0905 116.811 51.0905C112.105 51.0905 109.747 52.2998 109.747 54.7078C109.747 55.9452 110.241 56.9412 111.246 57.6959C112.243 58.4506 114.298 59.3919 117.382 60.5426C121.655 62.1066 124.765 63.7039 126.707 65.3599C129.474 67.7185 130.866 70.7305 130.866 74.4159Z" fill="#212F40"/>
<path d="M178.713 86.478H166.958C167.597 79.026 167.926 71.774 167.926 64.738C167.926 59.4994 167.269 56.0527 165.937 54.4207C164.618 52.786 162.432 51.97 159.398 51.97C156.192 51.97 153.041 53.046 149.948 55.1967C149.948 67.718 150.096 78.1447 150.392 86.478H138.638C138.957 77.3474 139.124 66.4087 139.124 53.6487C139.124 41.8967 138.672 32.1353 137.753 24.3593L150.26 23.658C149.814 33.1367 149.592 41.386 149.592 48.3966H150.173C154.054 44.8326 158.504 43.05 163.51 43.05C168.248 43.05 171.969 44.126 174.661 46.2673C177.357 48.4233 178.713 52.214 178.713 57.6234C178.713 58.1914 178.673 59.3233 178.593 61.05C178.526 62.7713 178.485 63.9153 178.485 64.4727C178.485 69.3913 178.556 76.7287 178.713 86.478Z" fill="#212F40"/>
<path d="M201.065 86.4781H189.177C189.587 80.3795 189.799 73.3888 189.799 65.4942C189.799 57.6555 189.295 50.7902 188.299 44.9048L201.017 43.6195C200.637 49.3288 200.445 56.6222 200.445 65.4942C200.445 73.0622 200.653 80.0542 201.065 86.4781ZM203.093 31.1675C203.093 33.1729 202.407 34.9235 201.039 36.4182C199.674 37.9262 197.766 38.6742 195.322 38.6742C193.257 38.6742 191.649 38.0249 190.482 36.7329C189.321 35.4369 188.738 33.8729 188.738 32.0529C188.738 30.0435 189.422 28.3168 190.791 26.8315C192.159 25.3648 194.081 24.6289 196.553 24.6289C198.649 24.6289 200.253 25.2649 201.399 26.5529C202.525 27.8262 203.093 29.3675 203.093 31.1675Z" fill="#212F40"/>
<path d="M253.682 63.6825C253.682 70.0745 251.85 75.6812 248.199 80.5092C244.547 85.3372 239.557 87.7572 233.225 87.7572C228.515 87.7572 225.273 86.7532 223.506 84.7506H222.977C222.977 91.9679 223.071 99.2745 223.282 106.667H211.265C211.799 98.2105 212.061 88.4612 212.061 77.4172C212.061 63.1639 211.298 52.2985 209.765 44.8119L221.078 43.5759L221.735 47.3718H222.446C225.594 44.4598 229.879 43.0052 235.301 43.0052C240.954 43.0052 245.431 45.0492 248.729 49.1265C252.03 53.2025 253.682 58.0479 253.682 63.6825ZM241.925 64.8332C241.925 61.1158 240.997 57.9212 239.142 55.2385C237.282 52.5612 234.723 51.2225 231.458 51.2225C227.393 51.2225 224.414 52.4105 222.53 54.8052C222.977 63.0798 223.199 70.6612 223.199 77.5466C225.053 78.9999 227.45 79.7118 230.39 79.7118C234.318 79.7118 237.21 78.2679 239.098 75.3639C240.981 72.4612 241.925 68.9505 241.925 64.8332Z" fill="#212F40"/>
<path d="M327.145 86.4778H315.437C316.055 79.0258 316.361 71.7738 316.361 64.7378C316.361 59.4711 315.684 56.0244 314.337 54.4018C312.977 52.7831 310.812 51.9698 307.844 51.9698C305.458 51.9698 302.936 52.8445 300.292 54.5778C300.168 58.2565 300.117 61.5658 300.117 64.4725C300.117 69.3912 300.201 76.7284 300.378 86.4778H288.541C289.178 78.4084 289.509 70.5551 289.509 62.9245C289.509 58.9765 288.954 56.1738 287.851 54.4938C286.742 52.8165 284.454 51.9698 280.981 51.9698C277.765 51.9698 275.102 53.0458 272.985 55.1965C273.129 66.8671 273.207 77.2858 273.207 86.4778H261.325C261.846 77.2858 262.113 70.0431 262.113 64.7378C262.113 57.8525 261.397 51.2032 259.954 44.8125L271.266 43.5765L272.017 48.2511H272.718C276.55 44.7791 280.863 43.0498 285.661 43.0498C291.673 43.0498 295.894 44.7791 298.342 48.2511H299.051C303.406 44.7791 307.729 43.0498 311.997 43.0498C316.999 43.0498 320.775 44.1258 323.323 46.2925C325.875 48.4605 327.145 52.3885 327.145 58.0658C327.145 58.6285 327.121 59.6991 327.061 61.2725C326.997 62.8458 326.966 63.9152 326.966 64.4725C326.966 69.3912 327.03 76.7284 327.145 86.4778Z" fill="#45A146"/>
<path d="M427.434 86.4778H415.682C416.33 79.0258 416.655 71.4831 416.655 63.8525C416.655 59.2325 415.97 56.0925 414.598 54.4458C413.231 52.8018 411.146 51.9698 408.345 51.9698C404.99 51.9698 401.809 53.1231 398.807 55.4178C398.954 66.8991 399.027 77.2578 399.027 86.4778H387.142C387.67 77.2578 387.937 70.0098 387.937 64.7378C387.937 57.6991 387.221 51.0565 385.77 44.8125L397.085 43.5765L397.833 48.2511H398.535C402.575 44.7791 407.219 43.0498 412.455 43.0498C416.987 43.0498 420.626 44.1178 423.342 46.2511C426.07 48.3938 427.434 52.3232 427.434 58.0658C427.434 58.9232 427.394 60.0684 427.315 61.4951C427.247 62.9191 427.206 64.3858 427.206 65.8885C427.206 69.8645 427.287 76.7284 427.434 86.4778Z" fill="#45A146"/>
<path d="M477.796 86.478H464.28C464.28 85.3807 462.039 81.69 457.57 75.4113C453.086 69.1233 450.234 65.9714 448.992 65.9714H448.424C448.424 72.0194 448.592 78.846 448.946 86.478H437.246C437.594 72.7167 437.774 61.7847 437.774 53.6487C437.774 42.3994 437.314 32.638 436.4 24.3593L448.946 23.658C448.535 34.85 448.324 44.8487 448.324 53.6487C448.324 54.7674 448.343 56.954 448.38 60.1847H448.992C449.82 60.1847 452.162 57.81 456.016 53.0487C459.88 48.2927 461.802 45.446 461.802 44.5046H474.971C474.971 45.418 472.963 47.9687 468.96 52.15C464.956 56.3367 461.714 59.222 459.243 60.806V61.4674C461.986 63.382 465.762 67.7366 470.571 74.5286C475.39 81.314 477.796 85.298 477.796 86.478Z" fill="#45A146"/>
<path d="M373.246 48.3248C369.054 44.4782 364.026 42.5635 358.159 42.5635C351.981 42.5635 346.589 44.6689 341.991 48.8795C337.397 53.0929 335.101 58.9235 335.101 66.3768C335.101 73.2968 337.202 78.6582 341.417 82.4768C345.629 86.2862 350.679 88.2035 356.578 88.2035C362.755 88.2035 368.129 86.1088 372.699 81.9261C377.261 77.7395 379.543 71.9368 379.543 64.5155C379.543 57.5728 377.445 52.1728 373.246 48.3248ZM368.394 74.4422C368.394 75.2342 367.749 75.8741 366.962 75.8741H348.562C347.771 75.8741 347.13 75.2342 347.13 74.4422V56.0422C347.13 55.2502 347.771 54.6102 348.562 54.6102H366.962C367.749 54.6102 368.394 55.2502 368.394 56.0422V74.4422Z" fill="#45A146"/>
<path d="M50.4724 97.6588C51.5977 97.6588 52.7217 97.6655 53.8417 97.6788C54.9631 97.6922 56.075 97.7121 57.179 97.7403C58.283 97.7669 59.3751 97.8002 60.4524 97.8402C61.5297 97.8803 62.5884 97.9256 63.6284 97.9788C64.6684 98.0308 65.6857 98.0895 66.6777 98.1548C67.6711 98.2203 68.6363 98.291 69.5723 98.3668C70.5083 98.4428 71.4111 98.5255 72.2817 98.6123C73.1524 98.7002 73.9857 98.7923 74.7817 98.8895C75.5777 98.9869 76.3324 99.0881 77.047 99.1949C77.7617 99.3015 78.4311 99.4123 79.0564 99.5255C79.6831 99.6402 80.2604 99.759 80.791 99.8803C81.3217 100.002 81.8031 100.126 82.2337 100.252C82.6644 100.38 83.043 100.51 83.371 100.64C83.6977 100.772 83.971 100.905 84.1897 101.04C84.4097 101.176 84.575 101.312 84.6857 101.448C84.795 101.586 84.8511 101.723 84.8511 101.86C84.8511 101.998 84.795 102.135 84.6857 102.272C84.575 102.41 84.4097 102.545 84.1897 102.68C83.971 102.815 83.6977 102.948 83.371 103.08C83.043 103.212 82.6644 103.341 82.2337 103.468C81.8031 103.595 81.3217 103.72 80.791 103.842C80.2604 103.963 79.6831 104.08 79.0564 104.195C78.4311 104.31 77.7617 104.419 77.047 104.526C76.3324 104.632 75.5777 104.734 74.7817 104.831C73.9857 104.928 73.1524 105.022 72.2817 105.108C71.4111 105.196 70.5083 105.278 69.5723 105.353C68.6363 105.431 67.6711 105.501 66.6777 105.565C65.6857 105.631 64.6684 105.69 63.6284 105.742C62.5884 105.795 61.5297 105.841 60.4524 105.882C59.3751 105.921 58.283 105.955 57.179 105.981C56.075 106.008 54.9631 106.028 53.8417 106.042C52.7217 106.055 51.5977 106.062 50.4724 106.062C49.3471 106.062 48.223 106.055 47.103 106.042C45.9817 106.028 44.8697 106.008 43.7657 105.981C42.6617 105.955 41.5697 105.921 40.4924 105.882C39.415 105.841 38.3564 105.795 37.3164 105.742C36.2764 105.69 35.259 105.631 34.267 105.565C33.2737 105.501 32.3084 105.431 31.3724 105.353C30.4364 105.278 29.5337 105.196 28.663 105.108C27.7923 105.022 26.959 104.928 26.163 104.831C25.367 104.734 24.6124 104.632 23.8977 104.526C23.183 104.419 22.5137 104.31 21.8883 104.195C21.2617 104.08 20.6844 103.963 20.1537 103.842C19.6231 103.72 19.1417 103.595 18.711 103.468C18.2804 103.341 17.9017 103.212 17.5737 103.08C17.2471 102.948 16.9737 102.815 16.755 102.68C16.535 102.545 16.3697 102.41 16.259 102.272C16.1497 102.135 16.0938 101.998 16.0938 101.86C16.0938 101.723 16.1497 101.586 16.259 101.448C16.3697 101.312 16.535 101.176 16.755 101.04C16.9737 100.905 17.2471 100.772 17.5737 100.64C17.9017 100.51 18.2804 100.38 18.711 100.252C19.1417 100.126 19.6231 100.002 20.1537 99.8803C20.6844 99.759 21.2617 99.6402 21.8883 99.5255C22.5137 99.4123 23.183 99.3015 23.8977 99.1949C24.6124 99.0881 25.367 98.9869 26.163 98.8895C26.959 98.7923 27.7923 98.7002 28.663 98.6123C29.5337 98.5255 30.4364 98.4428 31.3724 98.3668C32.3084 98.291 33.2737 98.2203 34.267 98.1548C35.259 98.0895 36.2764 98.0308 37.3164 97.9788C38.3564 97.9256 39.415 97.8803 40.4924 97.8402C41.5697 97.8002 42.6617 97.7669 43.7657 97.7403C44.8697 97.7121 45.9817 97.6922 47.103 97.6788C48.223 97.6655 49.3471 97.6588 50.4724 97.6588Z" fill="#212F40"/>
<path d="M87.3617 81.4824C87.7137 82.2944 87.8764 83.1997 87.8257 84.0891C87.7645 85.1837 87.3257 86.3117 86.895 87.3077C85.9657 89.4424 84.4364 91.3784 82.9618 93.1624C82.0763 94.2317 81.0617 95.1171 80.2857 96.2757C80.0683 96.5984 80.079 96.973 79.8725 97.3024C79.5857 97.7637 79.1938 98.173 78.8097 98.549C78.407 98.941 77.991 99.2931 77.4872 99.5437C77.1605 99.7051 76.855 99.9024 76.4724 99.9677C75.9245 100.061 75.3592 100.037 74.8032 100.094C74.239 100.152 73.7244 100.337 73.1804 100.49C72.035 100.808 70.7976 100.985 69.6203 100.736C69.4643 100.702 68.9603 100.552 68.9603 100.552C68.9603 100.552 68.3032 101.308 66.4698 102.288C65.9552 102.564 65.383 102.729 64.8057 102.82C64.2832 102.9 63.7724 102.849 63.2512 102.886C62.1485 102.954 61.1257 103.429 60.035 103.541C59.2511 103.625 58.5884 103.266 57.8858 102.973C57.171 102.672 56.4685 102.328 55.8577 101.838C55.5217 101.566 54.111 100.098 54.3683 99.601C53.523 100.185 52.6605 100.742 51.6883 101.098C51.2325 101.265 50.7537 101.366 50.2645 101.352C50.1738 101.348 50.087 101.341 49.9964 101.326C49.743 101.294 49.4885 101.244 49.2311 101.246C49.1257 101.25 49.0244 101.269 48.927 101.29C48.4084 101.417 47.951 101.788 47.419 101.885C47.3496 101.896 47.2657 101.908 47.171 101.914C46.4111 101.986 44.887 101.896 44.3658 101.001C44.3324 100.942 44.3085 100.884 44.2831 100.82C44.0005 100.957 43.4123 101.145 43.203 101.217C41.3351 101.87 39.4723 102.44 37.5071 102.752C35.8496 103.017 34.1538 103.128 32.4818 102.946C30.9057 102.781 29.3177 102.458 27.7657 102.14C26.8925 101.958 25.9378 101.784 25.159 101.33C24.9232 101.193 24.7096 101.025 24.547 100.813C24.4631 100.702 24.4083 100.588 24.3471 100.47C24.2124 100.225 24.047 100.101 23.8324 99.8984C23.1872 99.293 22.5965 98.5677 22.2005 97.7704C22.0417 97.4477 21.9111 97.1024 21.907 96.7411C21.907 96.6677 22.015 96.2224 22.015 96.2224C22.015 96.2224 20.9098 95.697 19.471 94.0477C17.6576 91.9624 16.6098 89.2757 16.7005 86.4811C16.7631 84.5664 17.3937 82.889 18.0497 81.633C18.4565 80.861 18.8658 80.2531 19.163 79.8531C19.163 79.8531 19.1563 79.8464 19.1376 79.8357C19.0243 79.7557 18.5578 79.3997 17.927 78.737C17.547 78.3383 17.107 77.8277 16.647 77.1931C15.723 75.9171 14.7283 74.1517 14.0071 71.8317C13.627 70.5984 12.8577 66.9477 13.4924 62.7317C13.6964 61.3877 14.0912 60.0637 14.6457 58.8237C15.407 57.1223 15.483 56.761 15.483 56.761C15.483 56.761 15.3817 55.6503 15.3338 55.2197C15.2432 54.361 14.9803 53.4904 14.9685 52.6277C14.9537 51.7904 15.2524 50.8877 15.8777 50.3117C15.8857 50.3837 15.8937 50.4571 15.9045 50.5291C16.2484 52.7251 18.6298 53.813 20.3658 54.861C21.6538 55.641 22.9591 56.3957 24.2712 57.1304C25.0404 57.5624 25.811 57.989 26.587 58.4103L26.6031 58.4184C26.3911 57.7397 26.1697 57.0611 25.9457 56.3837C25.6123 55.3717 25.2632 54.3611 24.9164 53.3491C24.6377 52.5304 24.3591 51.7144 24.0898 50.8917C24.0243 50.6997 23.959 50.5037 23.8978 50.3117C26.8443 50.609 32.5404 56.053 34.5778 58.5624C36.4017 60.8104 37.1485 63.7863 37.819 66.5597C37.8217 66.581 37.8297 66.5997 37.8324 66.621C37.8324 66.6184 41.2124 65.493 47.0056 61.513C51.6684 58.3117 55.6925 54.2224 59.1098 49.7171C59.4178 49.3117 59.991 48.485 60.4698 47.781C60.9232 47.121 61.2965 46.5664 61.2965 46.5664C61.2965 46.5664 62.6457 45.6637 63.6031 44.7277C65.5271 42.8357 66.8643 40.4397 67.7017 37.8877C67.8763 38.0211 68.1443 38.2171 68.4737 38.4531C70.403 39.8424 74.5363 42.709 75.6858 43.757C76.983 44.9424 78.0712 46.3344 79.2804 47.6064C81.6244 50.0757 83.5778 53.2291 84.339 53.9771C85.371 54.9957 86.267 56.1624 87.0138 57.4024C88.1243 59.2477 88.9403 61.293 89.203 63.4304C89.7803 68.0357 87.743 70.9824 85.3937 72.7664C83.2337 74.4077 80.8084 75.0691 79.9083 75.1264C79.8976 75.1304 79.887 75.1304 79.875 75.1304H79.8443C80.9631 75.1811 84.839 75.6637 87.3617 81.4824Z" fill="#45A146"/>
<path d="M84.98 63.6226C83.8853 62.2226 82.0213 71.504 82.0213 71.504L77.3679 71.9932L75.6453 59.928C75.6453 59.928 71.1973 63.1413 70.1999 62.568C69.3626 62.0813 70.9613 58.152 71.04 57.956C70.9493 58.1266 68.7133 62.2452 66.1866 62.8612C66.8719 61.2452 67.368 59.2626 67.452 57.0533C66.0853 60.5266 64.1973 62.8866 61.5506 63.7306C58.9026 64.576 61.8292 58.3373 63.0946 56.0613C60.716 59.5986 56.1879 68.4266 54.9479 63.9119C53.0586 66.5373 47.144 72.1159 37.6293 74.9546C37.8573 74.0866 38.0079 73.1306 38.0906 72.1493C49.9306 65.1439 51.4706 64.0973 56.0813 57.5306C48.2546 64.6173 41.6786 67.3999 38.0653 68.2626C38.0079 67.6639 37.9251 67.0893 37.8186 66.5586C37.1479 63.7866 36.4013 60.8106 34.5773 58.5613C33.7265 57.5133 32.2386 55.9546 30.5786 54.4733L29.6759 55.2119L31.1546 58.6386L29.6906 61.5999C30.2959 62.7666 31.3399 65.1706 31.4333 68.0239C31.5679 72.0706 29.9626 78.824 34.2693 78.824C34.376 78.824 34.4773 78.816 34.5786 78.804C34.0493 79.236 33.5866 79.4493 33.2733 79.5306C32.4879 79.7333 32.0066 79.7839 30.9186 80.0626C29.832 80.3386 27.4066 80.14 26.824 79.328C26.2426 78.52 25.2893 73.6906 24.456 71.7146C23.6186 69.7426 21.8666 67.3893 20.7279 66.428C24.2265 72.2226 25.9132 78.9266 24.2919 79.6066C22.6759 80.2879 22.1679 78.9 22.0918 77.1026C22.0146 75.3066 21.6133 73.5626 19.6666 70.224C20.9426 75.0866 22.36 79.592 19.1373 79.8346C19.1558 79.8466 19.1625 79.8533 19.1625 79.8533C18.8653 80.2533 18.456 80.8613 18.0493 81.6333C18.416 81.772 18.8133 81.8439 19.1586 81.7386C20.1199 81.4519 21.4173 80.324 21.8426 80.3906C22.2626 80.4586 22.9279 81.7386 24.3253 81.6239C25.7159 81.5026 26.9826 81.3146 27.852 81.612C28.7186 81.9093 29.6292 82.1773 30.7919 81.7386C31.9559 81.3039 32.4466 81.4013 32.4466 81.4013C32.4466 81.4013 33.004 81.8652 34.6506 82.3439C34.168 82.9612 33.384 83.592 32.112 83.9106C33.8853 84.016 35.3239 83.3639 36.2599 82.7572C37.0826 82.9612 37.9119 83.1666 38.6413 83.3813C37.8186 84.5199 36.0213 86.5093 32.6558 88.2426C36.7413 87.1399 39.4132 85.596 40.7399 84.2653C40.9719 84.5093 41.168 84.7439 41.3826 84.9293C40.4613 86.3639 38.4559 88.9973 35.0519 91.1506C37.2173 90.6306 39.276 89.9653 44.0293 85.2146C45.0333 85.1506 46.1493 85.0946 46.5253 85.1786C47.132 85.316 47.5373 85.3639 49.4946 84.8426C51.4493 84.3186 54.6039 83.8813 55.5133 83.8813C56.4239 83.8813 58.044 83.6959 59.172 83.3773C60.3026 83.0546 61.8693 82.4813 61.8693 82.4813C61.8693 82.4813 66.828 85.9212 70.3346 87.4412C65.192 83.5959 64.6973 81.268 64.6973 81.268C67.9666 80.8653 70.7653 81.604 74.3319 83.512C73.4693 82.4493 71.1973 80.8146 70.5226 80.6266C70.5226 80.6266 71.0119 80.2013 72.7292 80.6106C75.6959 81.3146 77.2986 80.9986 77.2986 80.9986C74.6706 80.0893 73.0386 77.7253 75.3946 76.3106C77.2986 75.1653 78.6252 75.1813 79.8439 75.1306H79.8746C79.8866 75.1306 79.8973 75.1306 79.908 75.1252C80.808 75.0679 83.2333 74.4079 85.3931 72.7666C85.8239 72.2293 86.1399 71.5773 86.2706 70.7786C86.8759 67.0893 86.0746 65.0226 84.98 63.6226Z" fill="#367137"/>
<path d="M52.3084 87.6235C52.1444 87.5969 50.4204 87.3182 48.3311 87.4915C47.8017 87.5315 47.2551 87.5929 46.7431 87.7382C46.6524 87.7635 46.5604 87.7889 46.4697 87.8169C46.5791 87.0049 46.923 86.0876 48.287 85.9382C50.1377 85.7369 52.1404 87.4742 52.3084 87.6235Z" fill="#367137"/>
<path d="M23.8856 50.3107C23.6402 49.532 23.3896 48.7561 23.1576 48.0134L23.1362 47.9401C22.9829 47.4494 22.8416 46.9721 22.707 46.5147C22.5856 46.0841 22.4683 45.6707 22.3603 45.2787C22.3523 45.2654 22.3482 45.2454 22.3442 45.2321C22.1642 44.5574 22.0149 43.9521 21.9109 43.4414L21.9069 43.4268C21.8882 43.3281 21.8709 43.2334 21.8536 43.1427C21.8229 42.9881 21.7975 42.8427 21.7829 42.7094C21.7722 42.6361 21.7655 42.5708 21.7589 42.5055C21.7469 42.3975 21.7429 42.2987 21.7429 42.2121C21.7429 40.9294 21.4282 40.0228 21.1082 39.4535C20.9896 39.2361 20.8016 39.1014 20.4789 39.1014H4.24821C3.63754 39.1014 2.88161 39.2494 2.46427 39.6707C2.44561 39.6921 2.42427 39.7134 2.4056 39.7361C2.2536 39.9134 2.15892 40.1427 2.15625 40.4214C2.15625 40.4454 2.15894 40.4761 2.15894 40.5014C2.22427 41.5627 3.85227 42.3894 4.92961 42.9814C6.00561 43.5761 8.13758 44.4014 9.13892 44.9334C10.1469 45.4641 11.5682 45.7614 12.4549 45.9387C13.3442 46.1201 15.5149 45.9388 15.7616 47.8321C15.8816 48.7628 15.8136 49.568 15.8776 50.3107C15.8856 50.384 15.8922 50.456 15.9042 50.5294C16.2482 52.7254 18.6296 53.8134 20.3656 54.8601C21.6522 55.6414 22.9589 56.3947 24.2696 57.1294C25.0389 57.5627 25.8109 57.9894 26.5869 58.4094C26.2029 57.1668 24.9989 53.7374 23.8856 50.3107Z" fill="#F9C8AA"/>
<path d="M25.9456 56.3837C25.6082 55.3691 25.2602 54.3571 24.9149 53.3491C24.5709 52.3384 24.2256 51.3251 23.8962 50.3104L23.1576 48.0131L23.1362 47.9397C22.9829 47.4504 22.8415 46.9718 22.7069 46.5144C22.5802 46.0838 22.4655 45.6704 22.3602 45.2784C22.3522 45.2651 22.3482 45.2451 22.3442 45.2318C22.1602 44.5531 22.0122 43.9478 21.9109 43.4411L21.9069 43.4265C21.8842 43.3291 21.8668 43.2344 21.8535 43.1438C21.8228 42.9878 21.7975 42.8424 21.7829 42.7091C21.7722 42.6358 21.7656 42.5678 21.7576 42.5065C21.7469 42.3971 21.7429 42.2985 21.7429 42.2118C21.7429 40.9291 21.4282 40.0224 21.1082 39.4531C20.9896 39.2358 20.8015 39.1011 20.4775 39.1011H4.24821C3.63754 39.1011 2.88153 39.2491 2.46419 39.6718C2.44553 39.6918 2.42418 39.7145 2.40552 39.7358C2.25352 39.9131 2.15892 40.1424 2.15625 40.4211C2.36692 40.3851 2.58024 40.3704 2.7749 40.3704H19.0055C19.3255 40.3704 19.5135 40.5051 19.6335 40.7225C19.9522 41.2918 20.2682 42.1971 20.2682 43.4811C20.2682 44.4011 20.8842 46.6851 21.6816 49.2811C21.9136 50.0251 22.1642 50.8011 22.4109 51.5798C23.0456 53.5305 23.7415 55.5784 24.2695 57.1291C25.0389 57.5624 25.8109 57.9891 26.5869 58.4091L26.6016 58.4171C26.3909 57.7398 26.1696 57.0611 25.9456 56.3837Z" fill="#E4A984"/>
<path d="M70.8482 38.5971C70.1936 39.0145 69.1962 38.9131 68.4669 37.6878C68.2322 37.2878 68.1189 36.8278 68.1082 36.3678C67.9736 36.9118 67.8722 37.3504 67.6989 37.8864C66.8616 40.4384 65.5242 42.8357 63.5976 44.7277C62.7322 45.5771 61.5429 46.3944 61.3255 46.5437L61.2922 46.5651C58.6922 48.1905 55.2495 49.1691 50.7322 49.0677C42.2895 49.1037 37.3509 46.1091 34.5122 42.0451C35.4909 44.2238 38.8669 49.7731 48.4882 52.0371C56.8949 54.0117 41.0336 65.1305 37.4696 65.2291C36.8682 62.8611 36.1002 60.4437 34.5736 58.5611C33.9256 57.7611 32.8989 56.6585 31.7135 55.5238C31.6522 55.0065 31.7135 54.3998 31.7389 54.1464C31.8469 52.1451 32.1189 49.9518 32.7935 49.3104C32.6602 49.4264 30.5602 51.2744 29.8509 53.8384C27.8416 52.1278 25.6949 50.6891 24.1642 50.3971C24.0736 50.3784 24.0095 50.3985 23.9215 50.3918L23.1362 47.9397C23.1362 47.9397 25.1882 43.6664 27.0002 41.8664C28.6069 40.2691 30.9895 38.8251 32.3735 37.8438C32.2095 37.3878 32.0656 36.9251 31.9349 36.4651C31.9242 36.8171 31.8509 37.1691 31.6922 37.4811C30.9562 38.9024 29.8869 39.0371 29.2016 38.5971C25.0749 36.2958 29.9882 29.9944 29.9882 29.9944C28.2829 27.8411 25.9176 18.5744 29.2269 18.0491C30.7456 17.8144 31.5909 18.2478 32.0682 18.7851C34.6682 -0.680214 50.0216 0.0024046 50.0216 0.0024046C50.0216 0.0024046 65.3709 -0.668208 67.9735 18.7918C68.4495 18.2518 69.2935 17.8144 70.8188 18.0491C74.1268 18.5744 71.7629 27.8411 70.0589 29.9944C70.0589 29.9944 74.9709 36.2958 70.8482 38.5971Z" fill="#F9C8AA"/>
<path d="M31.7371 54.1464C31.7118 54.4011 31.6505 55.0065 31.7118 55.5238C31.1225 54.9585 30.4945 54.3851 29.8491 53.8384C30.5585 51.2744 32.6585 49.4264 32.7931 49.3104C32.1185 49.9518 31.8465 52.1451 31.7371 54.1464Z" fill="#E4A984"/>
<path d="M61.2913 46.5656L61.2847 46.5763C61.234 46.6496 60.8861 47.171 60.4661 47.7816C59.9874 48.4843 59.414 49.3109 59.106 49.7163C55.686 54.2216 51.6634 58.3123 47.002 61.5136C41.2074 65.4936 37.822 66.6576 37.822 66.6603C37.7087 66.1896 37.5941 65.7069 37.4701 65.2296C41.0341 65.1309 56.8941 54.0123 48.4874 52.0376C38.8661 49.7736 35.4914 44.2243 34.5127 42.0456C37.3514 46.1096 42.2887 49.1043 50.7314 49.0683C55.2487 49.1697 58.6927 48.191 61.2913 46.5656Z" fill="#E4A984"/>
<path d="M42.7991 24.217C41.5671 23.2636 40.0097 24.2756 39.4204 25.4476C39.8844 24.8849 40.6418 24.3396 41.4058 24.4143C42.3231 24.5063 42.7684 25.4517 43.1698 26.1504L44.1884 25.5169C43.7631 25.0157 43.3417 24.5903 42.7991 24.217Z" fill="#212F40"/>
<path d="M38.8759 18.0611C39.2999 17.1931 40.1172 16.3825 41.0545 16.0958C41.9065 15.8331 42.7292 16.0158 43.5412 16.3198C42.5039 15.8585 41.4505 15.6452 40.3852 16.1452C39.7718 16.4332 39.2546 16.8852 38.8372 17.4159C38.7346 17.5465 38.5732 17.7131 38.5212 17.8731C38.4412 18.1145 38.7532 18.3185 38.8759 18.0611Z" fill="#212F40"/>
<path d="M56.9701 25.9635C57.3687 25.2608 57.874 24.4061 58.794 24.4075C59.4994 24.4088 60.1874 24.9221 60.6207 25.4474C60.1834 24.5781 59.2767 23.7582 58.2447 23.8608C57.2167 23.9648 56.4741 24.7754 55.8501 25.5168L56.8714 26.1501C56.9048 26.0888 56.9367 26.0261 56.9701 25.9635Z" fill="#212F40"/>
<path d="M56.9912 16.1374C57.9259 15.7427 59.0964 15.988 59.891 16.564C60.3498 16.8986 60.7392 17.336 61.0299 17.8227C61.0752 17.8947 61.1112 18.0187 61.1724 18.08C61.3365 18.2427 61.5805 18.1587 61.5299 17.9107C61.4512 17.532 60.9111 17.0547 60.6431 16.812C60.2205 16.428 59.7178 16.116 59.1646 15.9587C58.2231 15.6907 57.3657 15.9427 56.499 16.32C56.6632 16.2587 56.8271 16.1987 56.9912 16.1374Z" fill="#212F40"/>
<path d="M50.0723 32.8157C53.9149 32.5423 53.8483 29.1357 53.8483 29.1357C53.8483 29.1357 52.8362 31.3543 50.0176 31.3543C47.1962 31.3543 46.1709 29.1357 46.1709 29.1357C46.1709 29.1357 46.2309 33.0903 50.0723 32.8157Z" fill="#E4A984"/>
<path d="M71.1039 21.9206C71.0599 18.982 68.7386 21.4993 68.876 23.5033C69.0093 25.5086 69.0906 27.5366 69.3853 27.8446C69.4746 27.9379 71.1466 24.8566 71.1039 21.9206Z" fill="#E4A984"/>
<path d="M28.9427 21.9206C28.9 24.8566 30.5707 27.9379 30.656 27.8446C30.9533 27.5366 31.0321 25.5086 31.1707 23.5033C31.3041 21.4993 28.9867 18.982 28.9427 21.9206Z" fill="#E4A984"/>
<path d="M54.1944 44.357C51.4638 45.5437 46.9932 44.1304 46.9932 44.1304C50.7252 47.569 54.1944 44.357 54.1944 44.357Z" fill="#E4A984"/>
<path d="M46.0706 41.8674C46.0706 41.8674 50.9185 38.0728 55.2905 41.8674C60.7572 39.4008 62.4066 32.7234 62.4066 32.7234C61.3066 33.4287 60.2199 34.0127 59.1545 34.4874V34.4915C59.1545 34.4915 56.9919 38.9447 51.0879 38.9447C45.1866 38.9447 42.3612 34.4915 42.3612 34.4915C39.8666 33.4088 38.3945 32.2367 38.3945 32.2367C39.0492 35.4101 41.4799 39.9488 46.0706 41.8674Z" fill="#212F40"/>
<path d="M51.0865 38.9446C56.9905 38.9446 59.1532 34.4913 59.1532 34.4913V34.4873C52.2438 37.5753 46.1305 36.13 42.3599 34.4913C42.3599 34.4913 45.1852 38.9446 51.0865 38.9446Z" fill="white"/>
<path d="M46.0693 41.8671C47.6827 42.5444 49.568 42.8977 51.7333 42.7483C53.0626 42.6617 54.244 42.3391 55.2892 41.8671C50.9174 38.0724 46.0693 41.8671 46.0693 41.8671Z" fill="#F05A28"/>
<path d="M88.5213 63.623C88.2773 61.4803 87.152 59.827 86.0387 57.983C85.2907 56.743 84.1573 55.6656 83.1226 54.6483C82.3613 53.9003 80.408 50.7457 78.0653 48.279C76.8547 47.0057 75.7667 45.6136 74.4693 44.427C73.32 43.3763 69.176 40.5057 67.252 39.1203C67.4146 38.7137 67.5667 38.3057 67.7013 37.887C68.8907 38.8003 74.3387 42.5283 75.684 43.7576C76.9827 44.9429 78.0679 46.335 79.2799 47.607C81.6213 50.0763 83.576 53.2309 84.3386 53.9763C85.3706 54.9949 86.2667 56.163 87.0133 57.403C88.1213 59.2483 88.9373 61.2923 89.2066 63.4323C89.5573 66.2377 88.9359 68.4283 87.8666 70.1163C87.8666 70.1163 89.0773 68.5043 88.5213 63.623Z" fill="#367137"/>
<path d="M86.4876 88.155C85.557 89.9616 84.237 91.6176 82.961 93.1629C82.077 94.2309 81.061 95.1163 80.285 96.2763C80.0677 96.599 80.0783 96.9723 79.8717 97.3016C79.585 97.763 79.1943 98.1723 78.809 98.5483C78.4063 98.9403 77.9903 99.2937 77.4863 99.543C77.1597 99.7057 76.8544 99.9016 76.4717 99.967C75.9237 100.06 75.3583 100.036 74.8036 100.094C74.2383 100.151 73.7237 100.336 73.1797 100.49C72.0344 100.808 70.797 100.986 69.6196 100.735C69.4636 100.702 68.9596 100.551 68.9596 100.551C68.9596 100.551 68.3023 101.308 66.469 102.287C65.9543 102.563 65.3824 102.73 64.805 102.82C64.2837 102.899 63.7717 102.848 63.2503 102.886C62.1477 102.955 61.1263 103.428 60.0343 103.54C59.2517 103.624 58.5877 103.266 57.885 102.972C57.1703 102.671 56.4677 102.327 55.857 101.838C55.521 101.566 54.117 100.104 54.3677 99.6043V99.6003L54.433 99.5563C54.4917 99.5136 54.553 99.4736 54.6104 99.4336C54.6104 99.4336 55.0423 99.663 55.1983 99.7136C55.2957 99.7416 55.401 99.7643 55.5064 99.7776C55.7157 100.492 56.4236 101.92 58.6716 101.671C59.849 101.538 60.165 100.47 60.0916 99.267C60.0156 97.8563 59.4103 96.4177 58.7476 95.095C59.5623 96.603 61.133 99.1896 63.2263 99.8829C64.8943 100.435 66.613 100.663 69.0676 100.068C71.5223 99.4736 76.2637 98.6616 78.117 96.9256C79.969 95.1883 79.6183 94.9963 81.2637 93.4963C82.9037 91.9976 85.0196 90.5483 86.4876 88.155Z" fill="#367137"/>
<path d="M85.8713 68.7563C85.4846 70.5189 84.2659 71.5443 81.3699 72.4043C84.8352 71.247 84.3846 66.2976 83.1819 63.6882C82.4499 62.0922 80.8499 61.0203 79.3285 60.415H79.3245C78.3032 60.0083 77.3165 59.8123 76.6379 59.8123C76.2685 59.8123 75.8886 59.8456 75.4966 59.9256C77.9472 59.3736 81.7899 59.4149 83.9365 61.6389C86.1579 63.9496 86.2379 67.1176 85.8713 68.7563Z" fill="#212F40"/>
<path d="M81.1735 72.4662C77.4949 73.4942 74.1201 73.5342 71.6135 74.3542C69.1055 75.1729 68.2961 75.4249 66.5641 76.4569C64.8308 77.4902 60.7815 79.2275 58.9442 79.3075C57.4029 79.3715 55.8162 79.5529 54.7642 78.7476C54.5642 78.5956 54.3828 78.4115 54.2268 78.1795C53.8242 77.5515 53.9322 76.8822 53.8002 76.5409C53.6695 76.1995 53.2442 75.9929 53.1468 75.4756C53.0482 74.9609 53.1975 74.6916 53.0775 74.2889C52.9575 73.8862 52.3229 73.5276 52.2949 72.6502C52.2695 71.7729 52.4801 71.6289 52.4575 71.1423C52.4361 70.6596 52.0162 70.5583 52.0708 69.6596C52.1242 68.7636 52.3161 67.0675 54.7521 66.6409C56.8588 66.2742 57.3668 66.7409 58.3095 66.6943C59.6695 66.6289 59.5175 65.5622 59.3028 65.0409C59.0922 64.5182 58.7695 62.9062 59.0082 62.0356C59.2455 61.1689 59.7295 59.7516 61.9375 59.6436C63.1789 59.5876 63.3601 60.8236 63.3041 61.6289C63.2108 63.0222 62.6375 64.3368 62.7028 64.9648C62.7655 65.5888 62.7868 65.7035 62.7868 65.7035C62.7868 65.7035 64.1202 65.8675 65.4068 65.8675C66.6935 65.8675 68.8868 65.6209 70.9468 63.0729C73.0108 60.5236 74.9535 59.8129 76.6389 59.8129C77.3175 59.8129 78.3028 60.0089 79.3255 60.4155H79.3294C80.8508 61.0209 82.4508 62.0929 83.1828 63.6889C84.4081 66.3462 84.8535 71.4316 81.1735 72.4662Z" fill="#F9C8AA"/>
<path d="M81.173 72.4657C77.4943 73.4937 74.1196 73.5338 71.613 74.3538C69.105 75.1724 68.2956 75.4244 66.5636 76.4564C64.8303 77.4897 60.781 79.227 58.9437 79.307C57.4024 79.371 55.8157 79.5524 54.7637 78.7471C60.8143 77.0137 63.4383 74.8004 66.8276 73.7124C70.4276 72.5631 74.5169 72.1564 77.7036 71.6164C80.8903 71.0804 82.261 70.1084 82.377 66.6311C82.497 63.1551 80.2664 60.8964 79.329 60.415C80.8504 61.0204 82.4503 62.0924 83.1823 63.6884C84.4076 66.3457 84.853 71.4311 81.173 72.4657Z" fill="#E4A984"/>
<path d="M58.6722 101.671C56.4242 101.92 55.7162 100.492 55.5068 99.7786C55.5402 99.7853 55.5681 99.7892 55.6015 99.7932C56.1255 99.8359 56.6855 99.6812 57.1962 99.5812C57.7615 99.4706 58.2882 99.5132 58.8562 99.5132C59.1255 99.5132 59.3868 99.4879 59.6388 99.4092C59.9482 99.3092 60.0922 99.2665 60.0922 99.2665C60.1655 100.471 59.8495 101.536 58.6722 101.671Z" fill="#212F40"/>
<path d="M60.0924 99.2684C60.0924 99.2684 59.9471 99.3124 59.6377 99.4071C59.3831 99.4871 59.1231 99.5111 58.8578 99.5111C58.2885 99.5124 57.7618 99.4684 57.1964 99.5804C56.6831 99.6818 56.1271 99.8365 55.6018 99.7911C55.4658 99.7805 55.3257 99.7537 55.1977 99.7137C55.0431 99.6644 54.6111 99.4338 54.6111 99.4338C54.5525 99.4725 54.4937 99.5138 54.4337 99.5551C53.5671 100.152 52.6871 100.734 51.6898 101.096C51.2338 101.263 50.7538 101.366 50.2658 101.35C49.9204 101.34 49.5777 101.24 49.2324 101.247C48.5751 101.26 48.0524 101.768 47.4178 101.883C46.6964 102.016 44.3151 102.008 44.1884 100.426C44.1711 100.211 44.3004 99.7284 44.3151 99.6897C43.4497 99.2524 43.2337 98.5378 43.3257 98.0378C42.6524 97.8218 41.9151 97.1191 42.2125 95.8471C42.0671 95.7284 42.0324 95.7084 41.9738 95.6604C40.6498 94.5724 41.3178 92.8271 41.3178 92.8271C41.3178 92.8271 40.7178 92.2298 40.5231 91.8885C40.2324 91.3805 40.1564 90.7471 40.3204 90.1844C40.6551 89.0284 41.9084 88.6951 42.9857 88.6551C43.3391 88.6431 43.7151 88.6964 44.0631 88.6218C44.4245 88.5444 44.7858 88.3551 45.1338 88.2325C45.6644 88.0458 46.2018 87.8911 46.7431 87.7377C47.2551 87.5937 47.8018 87.5324 48.3311 87.4911C50.5271 87.3124 52.3098 87.6231 52.3098 87.6231C52.3098 87.6231 53.1204 88.2311 53.6351 88.7005C55.2764 90.1965 56.9711 91.7111 57.9991 93.6604C58.8831 95.3324 59.9871 97.3271 60.0924 99.2684Z" fill="#F9C8AA"/>
<path d="M60.0915 99.2669C60.0915 99.2669 59.9475 99.3096 59.6381 99.4082C59.3861 99.4882 59.1248 99.5122 58.8555 99.5122C58.2875 99.5122 57.7608 99.4696 57.1955 99.5816C56.6848 99.6802 56.1249 99.8349 55.6009 99.7936C55.4662 99.7816 55.3249 99.7536 55.1982 99.7123C55.0422 99.6629 54.6101 99.4335 54.6101 99.4335C54.5528 99.4722 54.4915 99.5123 54.4328 99.5563C53.5661 100.155 52.6849 100.735 51.6875 101.098C51.2315 101.264 50.7528 101.366 50.2635 101.352C49.9195 101.34 49.5781 101.239 49.2315 101.246C48.5741 101.262 48.0528 101.768 47.4182 101.884C46.6968 102.015 44.3142 102.007 44.1875 100.426C44.1769 100.282 44.2235 100.01 44.3142 99.6896C48.3355 100.795 55.0422 99.4336 55.7928 96.3042C56.5288 93.2336 52.0101 88.9642 50.2595 87.4402C51.4821 87.4762 52.3089 87.6216 52.3089 87.6216C52.3089 87.6216 52.9075 88.0429 53.5782 88.6496C55.1955 90.1136 56.9715 91.7122 57.9995 93.6616C58.8821 95.3336 59.9875 97.3282 60.0915 99.2669Z" fill="#E4A984"/>
<path d="M58.7473 95.0945C58.6606 94.9358 58.5833 94.7851 58.522 94.6584C58.5993 94.8051 58.674 94.9465 58.7473 95.0945Z" fill="#E4A984"/>
<path d="M44.1876 100.428C44.1982 100.572 44.2316 100.702 44.2782 100.824C43.9956 100.957 43.4116 101.145 43.2009 101.217C41.3343 101.87 39.4716 102.44 37.5063 102.752C35.8489 103.017 34.153 103.128 32.481 102.946C30.905 102.78 29.317 102.457 27.765 102.138C26.8916 101.957 25.937 101.784 25.1583 101.33C24.9223 101.193 24.709 101.025 24.5463 100.811C24.4623 100.702 24.4076 100.586 24.3463 100.47C24.2116 100.225 24.0463 100.101 23.8316 99.8969C23.1863 99.2929 22.5956 98.5675 22.1996 97.7702C22.041 97.4475 21.9102 97.1022 21.9062 96.7396C21.9062 96.6676 22.0142 96.2222 22.0142 96.2222C24.2849 97.5662 27.8009 99.2675 33.9716 100.018C37.0596 100.394 39.6996 100.232 41.5436 99.9848C41.5263 99.8435 41.5303 99.7088 41.5516 99.5862C40.8783 99.3728 40.1369 98.6702 40.4382 97.3969C40.2902 97.2769 40.257 97.2595 40.1996 97.2089C38.877 96.1209 39.5422 94.3768 39.5422 94.3768C39.5422 94.3768 38.9409 93.7795 38.7489 93.4368C38.4556 92.9262 38.3836 92.2955 38.5436 91.7342C38.7863 90.9035 39.4996 90.4982 40.2876 90.3196C40.1703 90.8462 40.2543 91.4182 40.5223 91.8889C40.7183 92.2302 41.3156 92.8288 41.3156 92.8288C41.3156 92.8288 40.6489 94.5729 41.9729 95.6609C42.0302 95.7075 42.0676 95.7288 42.2116 95.8488C41.9143 97.1182 42.6503 97.8236 43.3249 98.0382C43.2343 98.5382 43.4476 99.2529 44.3143 99.6915C44.2996 99.7275 44.1702 100.209 44.1876 100.428Z" fill="#367137"/>
<path d="M68.4742 38.4534C68.0622 40.2947 67.0862 42.8574 65.3035 44.9054C63.8849 46.5307 62.3555 47.3414 60.4702 47.7814C60.9235 47.12 61.2969 46.5654 61.2969 46.5654C61.2969 46.5654 62.6462 45.6641 63.6035 44.7281C65.5275 42.8361 66.8649 40.4387 67.7022 37.8881C67.8769 38.0214 68.1449 38.2174 68.4742 38.4534Z" fill="#367137"/>
<path d="M0.666992 38.3973V17.5493C0.666992 17.3547 0.736365 17.1893 0.873698 17.0519C1.01103 16.9133 1.17635 16.8453 1.37101 16.8453H22.219C22.4137 16.8453 22.579 16.9133 22.7163 17.0519C22.8536 17.1893 22.923 17.3547 22.923 17.5493V38.3973C22.923 38.592 22.8536 38.7573 22.7163 38.8946C22.579 39.0319 22.4137 39.1013 22.219 39.1013H1.37101C1.17635 39.1013 1.01103 39.0319 0.873698 38.8946C0.736365 38.7573 0.666992 38.592 0.666992 38.3973Z" fill="#E4BC56"/>
<path d="M22.9248 17.5715V38.3767C22.9248 38.7767 22.5981 39.1021 22.1995 39.1021H1.39274C0.995408 39.1021 0.66748 38.7767 0.66748 38.3767V38.314H20.7913C21.1915 38.314 21.5167 37.9888 21.5167 37.5901V16.8461H22.1995C22.5981 16.8461 22.9248 17.1715 22.9248 17.5715Z" fill="#C0993F"/>
<path d="M2.78516 18.9324H9.74512V22.9617H2.78516V18.9324Z" fill="white"/>
<path d="M36.8791 72.1941C36.8538 75.2781 35.2511 77.9714 34.0551 77.5847C31.9551 76.9034 33.1844 69.1528 31.4271 65.0381C29.3924 60.2848 26.7577 58.5008 26.5937 58.3914C25.7497 55.6808 24.7738 53.0128 23.8965 50.3115C25.6005 50.4808 28.2258 52.3781 30.5271 54.4261C30.5898 54.4874 30.6551 54.5528 30.7165 54.6181C34.7151 58.7901 36.9258 66.4768 36.8791 72.1941Z" fill="#45A146"/>
<path d="M36.8791 72.1941C36.8538 75.2781 35.2511 77.9714 34.0551 77.5847C31.9551 76.9034 33.1844 69.1528 31.4271 65.0381C29.5391 60.6248 27.1377 58.7901 26.6737 58.4688L26.6018 58.4181C25.7565 55.7061 24.7738 53.0128 23.8965 50.3115C23.9512 50.3155 24.1284 50.3434 24.1658 50.3501C25.8684 50.6741 28.3418 52.4821 30.5271 54.4261C30.5898 54.4874 30.6551 54.5528 30.7165 54.6181C34.7151 58.7901 36.9258 66.4768 36.8791 72.1941Z" fill="#212F40"/>
<path d="M17.9274 78.7367C17.5474 78.338 17.1075 77.8273 16.6475 77.1927C17.1475 76.8047 17.7288 75.4993 16.7448 71.1927C16.8715 71.378 19.4141 75.1834 17.9274 78.7367Z" fill="#367137"/>
</svg>
