<svg width="335" height="76" viewBox="0 0 335 76" fill="none" xmlns="http://www.w3.org/2000/svg">
<path d="M91.8063 52.758C91.8063 58.9446 87.2249 62.0366 78.0731 62.0366C74.7344 62.0366 71.8171 61.6673 69.3237 60.958L70.3703 54.8593C72.9503 55.794 75.5209 56.25 78.0731 56.25C80.5436 56.25 82.2651 56.046 83.2249 55.63C84.1771 55.2193 84.661 54.5286 84.661 53.5633C84.661 52.0606 82.9278 50.626 79.4663 49.2633C76.4343 48.07 74.2303 46.8913 72.8477 45.7366C70.949 44.1286 69.9983 42.1566 69.9983 39.8286C69.9983 37.0899 71.0224 34.882 73.0649 33.214C75.1036 31.546 78.0731 30.7126 81.9676 30.7126C85.6209 30.7126 88.4823 31.0326 90.5623 31.666L89.5196 37.7913C87.1837 36.8806 84.6704 36.43 81.9676 36.43C78.6729 36.43 77.0238 37.2766 77.0238 38.962C77.0238 39.8286 77.3691 40.526 78.0731 41.054C78.7703 41.582 80.2091 42.2406 82.3678 43.0459C85.3583 44.1419 87.5357 45.2593 88.8956 46.4193C90.8316 48.07 91.8063 50.1793 91.8063 52.758Z" fill="white"/>
<path d="M125.299 61.2014H117.071C117.518 55.9854 117.749 50.9081 117.749 45.9827C117.749 42.3161 117.289 39.9041 116.355 38.7614C115.433 37.6174 113.902 37.0454 111.779 37.0454C109.534 37.0454 107.329 37.7987 105.163 39.3041C105.163 48.0694 105.267 55.3681 105.474 61.2014H97.2475C97.4701 54.8107 97.5861 47.1534 97.5861 38.2214C97.5861 29.9947 97.2701 23.1614 96.6274 17.7188L105.382 17.2268C105.07 23.8628 104.915 29.6374 104.915 34.5454H105.322C108.038 32.0494 111.153 30.8014 114.657 30.8014C117.974 30.8014 120.578 31.5548 122.463 33.0534C124.35 34.5628 125.299 37.2161 125.299 41.0028C125.299 41.4001 125.271 42.1934 125.215 43.4014C125.169 44.6067 125.139 45.4067 125.139 45.7974C125.139 49.2414 125.189 54.3774 125.299 61.2014Z" fill="white"/>
<path d="M140.946 61.2014H132.624C132.912 56.9321 133.06 52.0388 133.06 46.5134C133.06 41.0254 132.707 36.2201 132.01 32.1001L140.912 31.2001C140.646 35.1961 140.512 40.3028 140.512 46.5134C140.512 51.8094 140.658 56.7041 140.946 61.2014ZM142.366 22.4841C142.366 23.8868 141.886 25.1134 140.928 26.1587C139.972 27.2147 138.636 27.7387 136.926 27.7387C135.48 27.7387 134.355 27.2841 133.538 26.3801C132.726 25.4721 132.316 24.3774 132.316 23.1041C132.316 21.6974 132.795 20.4894 133.755 19.4494C134.712 18.4214 136.058 17.9067 137.787 17.9067C139.255 17.9067 140.378 18.3521 141.18 19.2534C141.967 20.1454 142.366 21.2241 142.366 22.4841Z" fill="white"/>
<path d="M177.777 45.245C177.777 49.7197 176.495 53.645 173.94 57.0237C171.384 60.4037 167.889 62.097 163.457 62.097C160.16 62.097 157.891 61.3944 156.655 59.9917H156.283C156.283 65.045 156.349 70.1597 156.497 75.333H148.085C148.46 69.4143 148.643 62.5904 148.643 54.8597C148.643 44.881 148.109 37.2757 147.035 32.0357L154.955 31.1703L155.415 33.8277H155.912C158.116 31.789 161.115 30.7703 164.911 30.7703C168.868 30.7703 172.001 32.201 174.309 35.0557C176.621 37.909 177.777 41.301 177.777 45.245ZM169.547 46.0503C169.547 43.4477 168.897 41.2117 167.6 39.3344C166.297 37.4597 164.505 36.5223 162.221 36.5223C159.375 36.5223 157.289 37.3544 155.971 39.0304C156.283 44.8224 156.439 50.129 156.439 54.9504C157.737 55.9677 159.415 56.4664 161.473 56.4664C164.223 56.4664 166.247 55.4544 167.569 53.4224C168.887 51.3904 169.547 48.933 169.547 46.0503Z" fill="white"/>
<path d="M229.201 61.2017H221.005C221.439 55.9857 221.653 50.9083 221.653 45.983C221.653 42.2963 221.179 39.8843 220.236 38.7483C219.284 37.6163 217.768 37.0457 215.691 37.0457C214.02 37.0457 212.255 37.6576 210.404 38.871C210.317 41.447 210.281 43.763 210.281 45.7976C210.281 49.2416 210.34 54.3777 210.464 61.2017H202.179C202.624 55.5523 202.856 50.0563 202.856 44.715C202.856 41.951 202.468 39.9883 201.696 38.8123C200.919 37.639 199.317 37.0457 196.887 37.0457C194.636 37.0457 192.772 37.799 191.289 39.3043C191.391 47.475 191.445 54.767 191.445 61.2017H183.128C183.493 54.767 183.679 49.6977 183.679 45.983C183.679 41.1643 183.177 36.5097 182.168 32.0363L190.087 31.171L190.612 34.443H191.103C193.785 32.0137 196.804 30.8016 200.163 30.8016C204.371 30.8016 207.325 32.0137 209.04 34.443H209.536C212.584 32.0137 215.611 30.8016 218.597 30.8016C222.1 30.8016 224.743 31.555 226.527 33.071C228.313 34.5897 229.201 37.339 229.201 41.3136C229.201 41.707 229.185 42.4563 229.143 43.5577C229.097 44.659 229.076 45.407 229.076 45.7976C229.076 49.2416 229.121 54.3777 229.201 61.2017Z" fill="#45A146"/>
<path d="M299.404 61.2017H291.177C291.632 55.9857 291.858 50.7056 291.858 45.3643C291.858 42.1296 291.38 39.9323 290.418 38.779C289.461 37.6283 288.002 37.0457 286.041 37.0457C283.693 37.0457 281.466 37.8537 279.365 39.459C279.468 47.4963 279.518 54.7483 279.518 61.2017H271.2C271.569 54.7483 271.756 49.6737 271.756 45.983C271.756 41.0563 271.254 36.407 270.24 32.0363L278.158 31.171L278.682 34.443H279.174C282.002 32.0137 285.253 30.8016 288.918 30.8016C292.09 30.8016 294.638 31.5496 296.538 33.043C298.449 34.543 299.404 37.2936 299.404 41.3136C299.404 41.9136 299.376 42.715 299.321 43.7137C299.273 44.711 299.244 45.7376 299.244 46.7896C299.244 49.5723 299.301 54.3777 299.404 61.2017Z" fill="#45A146"/>
<path d="M334.658 61.2014H325.196C325.196 60.4334 323.627 57.8508 320.499 53.4548C317.36 49.0521 315.364 46.8468 314.495 46.8468H314.097C314.097 51.0801 314.215 55.8587 314.463 61.2014H306.272C306.516 51.5681 306.642 43.9161 306.642 38.2214C306.642 30.3467 306.32 23.5134 305.68 17.7188L314.463 17.2268C314.175 25.0628 314.027 32.0614 314.027 38.2214C314.027 39.0041 314.04 40.5347 314.067 42.7961H314.495C315.075 42.7961 316.714 41.1334 319.411 37.8014C322.116 34.4721 323.462 32.4787 323.462 31.8201H332.68C332.68 32.4601 331.275 34.2454 328.472 37.1707C325.67 40.1027 323.4 42.1228 321.671 43.2308V43.6947C323.591 45.0347 326.234 48.0828 329.6 52.8361C332.974 57.5868 334.658 60.3761 334.658 61.2014Z" fill="#45A146"/>
<path d="M261.473 34.4943C258.538 31.8009 255.019 30.4609 250.913 30.4609C246.587 30.4609 242.813 31.9356 239.594 34.8823C236.378 37.8316 234.771 41.9129 234.771 47.1302C234.771 51.9742 236.242 55.7276 239.193 58.4009C242.141 61.0676 245.675 62.4089 249.805 62.4089C254.129 62.4089 257.89 60.9436 261.09 58.0143C264.283 55.0849 265.881 51.0223 265.881 45.8276C265.881 40.9676 264.411 37.1876 261.473 34.4943ZM258.077 52.7769C258.077 53.3316 257.625 53.7796 257.074 53.7796H244.194C243.641 53.7796 243.191 53.3316 243.191 52.7769V39.8956C243.191 39.3423 243.641 38.8942 244.194 38.8942H257.074C257.625 38.8942 258.077 39.3423 258.077 39.8956V52.7769Z" fill="#45A146"/>
<path d="M35.5297 69.028C37.1097 69.028 38.675 69.0466 40.2244 69.0839C41.7737 69.1226 43.279 69.1773 44.739 69.252C46.199 69.3253 47.5857 69.416 48.899 69.524C50.2137 69.6306 51.4283 69.7533 52.5457 69.8893C53.663 70.0253 54.6603 70.1746 55.539 70.3346C56.4163 70.496 57.1577 70.6653 57.763 70.844C58.367 71.0213 58.8243 71.2053 59.1323 71.3946C59.4403 71.5853 59.595 71.7759 59.595 71.9693C59.595 72.1626 59.4403 72.3533 59.1323 72.5426C58.8243 72.732 58.367 72.916 57.763 73.0946C57.1577 73.2733 56.4163 73.4426 55.539 73.6026C54.6603 73.764 53.663 73.9119 52.5457 74.0493C51.4283 74.1853 50.2137 74.3066 48.899 74.4146C47.5857 74.5213 46.199 74.612 44.739 74.6866C43.279 74.76 41.7737 74.816 40.2244 74.8533C38.675 74.892 37.1097 74.9106 35.5297 74.9106C33.9497 74.9106 32.3844 74.892 30.835 74.8533C29.2857 74.816 27.7803 74.76 26.3203 74.6866C24.8603 74.612 23.4737 74.5213 22.1603 74.4146C20.8457 74.3066 19.631 74.1853 18.5137 74.0493C17.3963 73.9119 16.3977 73.764 15.5203 73.6026C14.643 73.4426 13.9017 73.2733 13.2964 73.0946C12.6924 72.916 12.235 72.732 11.927 72.5426C11.619 72.3533 11.4644 72.1626 11.4644 71.9693C11.4644 71.7759 11.619 71.5853 11.927 71.3946C12.235 71.2053 12.6924 71.0213 13.2964 70.844C13.9017 70.6653 14.643 70.496 15.5203 70.3346C16.3977 70.1746 17.3963 70.0253 18.5137 69.8893C19.631 69.7533 20.8457 69.6306 22.1603 69.524C23.4737 69.416 24.8603 69.3253 26.3203 69.252C27.7803 69.1773 29.2857 69.1226 30.835 69.0839C32.3844 69.0466 33.9497 69.028 35.5297 69.028Z" fill="#212F40"/>
<path d="M61.3538 57.7041C61.6004 58.2721 61.7138 58.9067 61.6791 59.528C61.6351 60.2947 61.3284 61.084 61.0271 61.7827C60.3764 63.276 59.3058 64.632 58.2738 65.88C57.6551 66.628 56.9444 67.2481 56.4004 68.0601C56.2484 68.2854 56.2551 68.5467 56.1111 68.7774C55.9111 69.1014 55.6365 69.3867 55.3671 69.6507C55.0858 69.9254 54.7951 70.172 54.4417 70.3467C54.2124 70.46 53.9991 70.5974 53.7311 70.644C53.3471 70.7094 52.9511 70.692 52.5631 70.732C52.1684 70.772 51.8071 70.9027 51.4271 71.0094C50.6244 71.232 49.7591 71.356 48.9351 71.1813C48.8257 71.1587 48.4724 71.052 48.4724 71.052C48.4724 71.052 48.0124 71.5827 46.7298 72.268C46.3698 72.4614 45.9685 72.5774 45.5645 72.64C45.1991 72.696 44.8417 72.6614 44.4764 72.6867C43.7044 72.7347 42.9885 73.0667 42.2245 73.1454C41.6765 73.204 41.2125 72.9534 40.7205 72.7467C40.2205 72.5374 39.7284 72.296 39.3018 71.9534C39.0658 71.7627 38.0777 70.7347 38.2577 70.3867C37.6671 70.796 37.0631 71.1854 36.3831 71.4347C36.0631 71.552 35.7284 71.6227 35.3858 71.6134C35.3218 71.6094 35.2618 71.6054 35.1978 71.5947C35.0204 71.5721 34.8431 71.5374 34.6631 71.5387C34.5884 71.5414 34.5178 71.5547 34.4498 71.5694C34.0871 71.6587 33.7671 71.9174 33.3938 71.9854C33.3458 71.9934 33.2871 72.0014 33.2205 72.0067C32.6885 72.0574 31.6218 71.9934 31.2564 71.3667C31.2338 71.3267 31.2164 71.2854 31.1991 71.24C31.0004 71.336 30.5897 71.468 30.4417 71.5187C29.1351 71.9747 27.8311 72.3747 26.4551 72.592C25.2951 72.7787 24.1084 72.856 22.9378 72.7294C21.8338 72.612 20.7231 72.3867 19.6364 72.164C19.0257 72.0373 18.3578 71.9147 17.8124 71.5974C17.6471 71.5014 17.4977 71.384 17.3831 71.2347C17.3244 71.1587 17.2858 71.0774 17.2445 70.996C17.1498 70.824 17.0337 70.7374 16.8831 70.5947C16.4311 70.1721 16.0178 69.664 15.7418 69.1054C15.6298 68.88 15.5391 68.6387 15.5351 68.384C15.5351 68.3334 15.6111 68.0227 15.6111 68.0227C15.6111 68.0227 14.8378 67.6547 13.8298 66.5C12.5618 65.04 11.8271 63.16 11.8911 61.2027C11.9338 59.8627 12.3765 58.688 12.8351 57.8094C13.1191 57.2694 13.4058 56.844 13.6151 56.564C13.6151 56.564 13.6098 56.5587 13.5965 56.5507C13.5178 56.496 13.1911 56.2467 12.7498 55.7827C12.4831 55.504 12.1751 55.1454 11.8538 54.7014C11.2071 53.808 10.5111 52.572 10.0058 50.948C9.73913 50.0854 9.20177 47.5294 9.64577 44.5787C9.7871 43.6374 10.0644 42.7107 10.4524 41.8427C10.9857 40.652 11.0378 40.3987 11.0378 40.3987C11.0378 40.3987 10.9684 39.6214 10.9351 39.32C10.8711 38.7187 10.6871 38.1094 10.6791 37.5054C10.6685 36.92 10.8765 36.288 11.3151 35.884C11.3205 35.9347 11.3258 35.9867 11.3338 36.0374C11.5751 37.5747 13.2418 38.336 14.4565 39.0694C15.3578 39.6147 16.2725 40.1427 17.1898 40.6574C17.7285 40.9601 18.2684 41.2587 18.8124 41.5534L18.8231 41.5587C18.6738 41.084 18.5191 40.6094 18.3631 40.1347C18.1298 39.4267 17.8844 38.7187 17.6418 38.0107C17.4471 37.4374 17.2511 36.8667 17.0631 36.2907C17.0178 36.156 16.9725 36.0187 16.9285 35.884C18.9912 36.0934 22.9778 39.904 24.4045 41.66C25.6818 43.2334 26.2044 45.3174 26.6738 47.2574C26.6751 47.2734 26.6818 47.2854 26.6831 47.3014C26.6831 47.2987 29.0498 46.512 33.1044 43.7254C36.3684 41.4854 39.1845 38.6227 41.5778 35.4681C41.7925 35.1841 42.1938 34.6054 42.5298 34.1134C42.8471 33.6507 43.1084 33.2627 43.1084 33.2627C43.1084 33.2627 44.0524 32.6307 44.7218 31.976C46.0698 30.652 47.0058 28.9734 47.5925 27.188C47.7138 27.2814 47.9018 27.4187 48.1324 27.584C49.4831 28.556 52.3751 30.5627 53.1804 31.296C54.0884 32.1267 54.8498 33.1001 55.6978 33.9907C57.3378 35.7201 58.7058 37.9267 59.2378 38.4494C59.9605 39.1627 60.5871 39.98 61.1111 40.848C61.8871 42.14 62.4577 43.5707 62.6431 45.068C63.0471 48.292 61.6204 50.3547 59.9764 51.6027C58.4644 52.752 56.7657 53.2147 56.1364 53.2547C56.1284 53.2574 56.1218 53.2574 56.1138 53.2574H56.0911C56.8751 53.2934 59.5871 53.6307 61.3538 57.7041Z" fill="#45A146"/>
<path d="M59.686 45.2026C58.9194 44.2226 57.6153 50.7199 57.6153 50.7199L54.3567 51.0626L53.1514 42.6159C53.1514 42.6159 50.038 44.8652 49.3394 44.4639C48.754 44.1239 49.8727 41.3733 49.9287 41.2359C49.8647 41.3559 48.2993 44.2386 46.5313 44.6706C47.01 43.5386 47.358 42.1506 47.4167 40.6039C46.4593 43.0359 45.138 44.6879 43.2847 45.2786C41.4313 45.8692 43.4806 41.5039 44.366 39.9092C42.7006 42.3852 39.5314 48.5652 38.6647 45.4052C37.3407 47.2426 33.2007 51.1479 26.5407 53.1346C26.6994 52.5266 26.806 51.8586 26.8634 51.1719C35.1514 46.2679 36.23 45.5346 39.4567 40.9386C33.978 45.8986 29.3754 47.8466 26.846 48.4506C26.806 48.0319 26.7487 47.6293 26.6727 47.2586C26.2034 45.3173 25.6807 43.2332 24.4047 41.6599C23.8087 40.9266 22.7673 39.8359 21.6047 38.7986L20.9727 39.3159L22.0087 41.7133L20.9833 43.7866C21.4073 44.6039 22.138 46.2866 22.2034 48.2839C22.298 51.1159 21.174 55.8439 24.1886 55.8439C24.2633 55.8439 24.334 55.8386 24.4047 55.8292C24.034 56.1319 23.7114 56.2812 23.4914 56.3386C22.942 56.4799 22.6047 56.5159 21.8433 56.7106C21.0833 56.9039 19.3846 56.7652 18.9766 56.1972C18.57 55.6306 17.902 52.2506 17.3193 50.8666C16.7327 49.4866 15.5074 47.8399 14.71 47.1666C17.158 51.2226 18.3393 55.9146 17.2047 56.3919C16.0727 56.8693 15.718 55.8973 15.6647 54.6386C15.6114 53.3813 15.3287 52.1612 13.9674 49.8239C14.8594 53.2266 15.8527 56.3813 13.5954 56.5519C13.6087 56.5586 13.614 56.5639 13.614 56.5639C13.406 56.8439 13.1193 57.2692 12.834 57.8092C13.0913 57.9066 13.37 57.9572 13.6113 57.8839C14.2847 57.6826 15.1927 56.8932 15.49 56.9399C15.7833 56.9879 16.25 57.8839 17.2274 57.8026C18.202 57.7186 19.0874 57.5866 19.6967 57.7959C20.3034 58.0026 20.9407 58.1906 21.7554 57.8839C22.5687 57.5786 22.9127 57.6479 22.9127 57.6479C22.9127 57.6479 23.302 57.9719 24.4553 58.3079C24.118 58.7399 23.5686 59.1812 22.678 59.4039C23.9193 59.4772 24.9274 59.0212 25.582 58.5972C26.158 58.7399 26.738 58.8839 27.2487 59.0332C26.6727 59.8306 25.414 61.2239 23.0593 62.4373C25.9193 61.6653 27.7887 60.5839 28.718 59.6532C28.8807 59.8226 29.018 59.9879 29.1673 60.1172C28.5233 61.1212 27.1193 62.9653 24.7367 64.4719C26.2513 64.1093 27.6927 63.6426 31.0207 60.3173C31.7233 60.2719 32.5046 60.2332 32.7686 60.2919C33.1913 60.3879 33.4767 60.4212 34.846 60.0559C36.214 59.6906 38.4233 59.3839 39.0593 59.3839C39.6967 59.3839 40.8314 59.2532 41.6207 59.0306C42.4114 58.8052 43.5087 58.4039 43.5087 58.4039C43.5087 58.4039 46.9793 60.8119 49.434 61.8759C45.8353 59.1839 45.4873 57.5546 45.4873 57.5546C47.7766 57.2719 49.7353 57.7892 52.2327 59.1252C51.6287 58.3812 50.038 57.2372 49.566 57.1052C49.566 57.1052 49.9087 56.8079 51.1113 57.0946C53.1873 57.5866 54.3087 57.3652 54.3087 57.3652C52.4687 56.7292 51.3273 55.0746 52.9766 54.0839C54.3086 53.2826 55.238 53.2932 56.09 53.2572H56.1127C56.1207 53.2572 56.1287 53.2572 56.1353 53.2546C56.766 53.2146 58.4633 52.7519 59.9753 51.6039C60.2767 51.2279 60.498 50.7706 60.59 50.2119C61.014 47.6292 60.4527 46.1826 59.686 45.2026Z" fill="#367137"/>
<path d="M36.8162 62.0031C36.7015 61.9845 35.4948 61.7898 34.0321 61.9111C33.6615 61.9391 33.2788 61.9818 32.9202 62.0845C32.8575 62.1018 32.7935 62.1192 32.7295 62.1392C32.8055 61.5712 33.0468 60.9285 34.0015 60.8232C35.2961 60.6818 36.6988 61.8978 36.8162 62.0031Z" fill="#367137"/>
<path d="M16.9201 35.8839C16.7481 35.3385 16.5735 34.7959 16.4108 34.2759L16.3948 34.2252C16.2881 33.8812 16.1895 33.5466 16.0948 33.2266C16.0095 32.9252 15.9281 32.6359 15.8521 32.3612C15.8468 32.3519 15.8441 32.3386 15.8415 32.3292C15.7161 31.8572 15.6108 31.4332 15.5374 31.0745L15.5347 31.0652C15.5227 30.9959 15.5095 30.9305 15.4975 30.8665C15.4761 30.7585 15.4587 30.6559 15.4481 30.5625C15.4401 30.5119 15.4361 30.4652 15.4307 30.4199C15.4227 30.3452 15.4201 30.2759 15.4201 30.2146C15.4201 29.3172 15.2001 28.6826 14.9761 28.2839C14.8921 28.1319 14.7614 28.0372 14.5347 28.0372H3.17342C2.74675 28.0372 2.21746 28.1412 1.92546 28.4359C1.91212 28.4505 1.89745 28.4665 1.88411 28.4812C1.77745 28.6052 1.71214 28.7666 1.70947 28.9612C1.70947 28.9786 1.71208 28.9999 1.71208 29.0172C1.75741 29.7599 2.89746 30.3385 3.6508 30.7532C4.40413 31.1692 5.89608 31.7465 6.59741 32.1199C7.30275 32.4919 8.29745 32.6986 8.91878 32.8239C9.54145 32.9506 11.0601 32.8239 11.2335 34.1492C11.3175 34.7999 11.2694 35.3639 11.3148 35.8839C11.3201 35.9345 11.3254 35.9852 11.3321 36.0372C11.5734 37.5746 13.2415 38.3359 14.4561 39.0692C15.3575 39.6145 16.2708 40.1426 17.1895 40.6572C17.7281 40.9599 18.2681 41.2586 18.8108 41.5532C18.5415 40.6826 17.7001 38.2825 16.9201 35.8839Z" fill="#F9C8AA"/>
<path d="M18.362 40.1351C18.126 39.4244 17.882 38.7164 17.6406 38.0111C17.3993 37.3031 17.1579 36.5937 16.9272 35.8844L16.4099 34.2751L16.3953 34.2244C16.2886 33.8817 16.1886 33.5471 16.0953 33.2271C16.0073 32.9244 15.926 32.6351 15.8513 32.3617C15.8473 32.3524 15.8446 32.3391 15.8406 32.3284C15.7126 31.8537 15.6086 31.4297 15.5379 31.0751L15.5353 31.0644C15.5193 30.9964 15.5072 30.9297 15.4966 30.8671C15.4766 30.7577 15.4593 30.6564 15.4486 30.5631C15.4406 30.5124 15.4353 30.4644 15.4313 30.4204C15.4233 30.3444 15.4207 30.2751 15.4207 30.2151C15.4207 29.3164 15.2006 28.6831 14.9766 28.2831C14.8926 28.1311 14.7607 28.0378 14.5353 28.0378H3.17391C2.74724 28.0378 2.21664 28.1417 1.92464 28.4364C1.91264 28.4511 1.8966 28.4657 1.8846 28.4817C1.77794 28.6057 1.71129 28.7658 1.70996 28.9618C1.85663 28.9364 2.00598 28.9257 2.14331 28.9257H13.5046C13.7286 28.9257 13.8593 29.0204 13.9433 29.1724C14.1673 29.5711 14.3873 30.2044 14.3873 31.1031C14.3873 31.7471 14.8193 33.3458 15.3766 35.1631C15.5393 35.6844 15.7153 36.2271 15.8873 36.7724C16.3313 38.1378 16.8193 39.5711 17.1886 40.6578C17.7273 40.9604 18.2673 41.2591 18.8113 41.5524L18.8219 41.5591C18.6739 41.0844 18.5193 40.6084 18.362 40.1351Z" fill="#E4A984"/>
<path d="M49.7937 27.6845C49.335 27.9765 48.6377 27.9058 48.127 27.0485C47.9617 26.7685 47.8831 26.4458 47.8764 26.1245C47.7817 26.5045 47.711 26.8112 47.5897 27.1872C47.003 28.9738 46.0671 30.6511 44.7191 31.9765C44.1124 32.5698 43.279 33.1432 43.127 33.2472L43.1044 33.2618C41.2844 34.3992 38.8751 35.0845 35.7124 35.0138C29.8017 35.0392 26.3457 32.9432 24.3577 30.0978C25.0431 31.6232 27.407 35.5085 34.1417 37.0925C40.0257 38.4752 28.9231 46.2578 26.4284 46.3271C26.0084 44.6698 25.471 42.9765 24.4017 41.6591C23.947 41.0991 23.2297 40.3271 22.4004 39.5338C22.3564 39.1711 22.4004 38.7471 22.4177 38.5685C22.4937 37.1685 22.683 35.6325 23.155 35.1845C23.0617 35.2645 21.5924 36.5592 21.0951 38.3538C19.6884 37.1552 18.1857 36.1498 17.1151 35.9445C17.0524 35.9312 17.0071 35.9458 16.9457 35.9405L16.395 34.2245C16.395 34.2245 17.831 31.2325 19.1003 29.9738C20.2243 28.8552 21.8924 27.8445 22.8617 27.1565C22.7471 26.8378 22.6457 26.5152 22.555 26.1925C22.547 26.4392 22.4964 26.6845 22.3844 26.9032C21.8697 27.8978 21.1204 27.9925 20.6404 27.6845C17.7524 26.0738 21.1911 21.6632 21.1911 21.6632C19.9991 20.1552 18.3417 13.6685 20.659 13.3005C21.7217 13.1365 22.3137 13.4405 22.6484 13.8165C24.4684 0.191157 35.215 0.6685 35.215 0.6685C35.215 0.6685 45.9604 0.197811 47.7817 13.8205C48.1137 13.4431 48.7057 13.1365 49.7737 13.3005C52.0883 13.6685 50.4337 20.1552 49.2404 21.6632C49.2404 21.6632 52.6804 26.0738 49.7937 27.6845Z" fill="#F9C8AA"/>
<path d="M22.4165 38.5695C22.3992 38.7468 22.3565 39.1708 22.3992 39.5334C21.9858 39.1374 21.5459 38.7361 21.0952 38.3535C21.5912 36.5588 23.0619 35.2655 23.1552 35.1841C22.6832 35.6335 22.4938 37.1681 22.4165 38.5695Z" fill="#E4A984"/>
<path d="M43.1041 33.2624L43.0988 33.2704C43.0643 33.3211 42.8203 33.6864 42.5269 34.1131C42.1909 34.6051 41.7896 35.1838 41.5748 35.4678C39.1816 38.6224 36.3642 41.4851 33.1016 43.7264C29.0456 46.5118 26.6761 47.3264 26.6761 47.3291C26.5962 46.9998 26.5161 46.6624 26.4296 46.3278C28.9243 46.2584 40.0256 38.4744 34.1416 37.0931C27.4068 35.5078 25.0442 31.6238 24.3589 30.0984C26.3456 32.9438 29.8016 35.0384 35.7122 35.0144C38.8748 35.0851 41.2853 34.3997 43.1041 33.2624Z" fill="#E4A984"/>
<path d="M30.1593 17.6186C29.2966 16.9519 28.2073 17.6599 27.7939 18.4799C28.1193 18.0852 28.6486 17.7039 29.1833 17.7572C29.8259 17.8212 30.1379 18.4826 30.4193 18.9719L31.1326 18.5293C30.834 18.1786 30.5393 17.8799 30.1593 17.6186Z" fill="#212F40"/>
<path d="M27.4129 13.3096C27.7101 12.7016 28.2822 12.135 28.9382 11.9336C29.5342 11.751 30.1103 11.8776 30.6781 12.091C29.9529 11.767 29.2156 11.619 28.4689 11.9683C28.0396 12.171 27.6781 12.4869 27.3862 12.8576C27.3142 12.9496 27.2009 13.067 27.1648 13.1776C27.1089 13.347 27.3276 13.4896 27.4129 13.3096Z" fill="#212F40"/>
<path d="M40.0789 18.8412C40.3575 18.3491 40.7109 17.7506 41.3562 17.7519C41.8495 17.7532 42.3309 18.1118 42.6335 18.4798C42.3282 17.8719 41.6935 17.2971 40.9709 17.3692C40.2522 17.4426 39.7323 18.0091 39.2949 18.5293L40.0095 18.9719C40.0322 18.9291 40.0562 18.8852 40.0789 18.8412Z" fill="#212F40"/>
<path d="M40.0937 11.9631C40.7483 11.6871 41.5669 11.8577 42.1243 12.2617C42.4456 12.4951 42.7175 12.8018 42.9216 13.1431C42.9523 13.1938 42.9776 13.2804 43.0203 13.3231C43.1348 13.4364 43.307 13.3777 43.271 13.2044C43.2163 12.9404 42.8377 12.6058 42.6497 12.4351C42.3537 12.1671 42.0017 11.9471 41.615 11.8378C40.9563 11.6511 40.3563 11.8271 39.7495 12.0911C39.8643 12.0471 39.979 12.0057 40.0937 11.9631Z" fill="#212F40"/>
<path d="M35.2507 23.6372C37.94 23.4465 37.8933 21.0612 37.8933 21.0612C37.8933 21.0612 37.1853 22.6145 35.212 22.6145C33.2373 22.6145 32.52 21.0612 32.52 21.0612C32.52 21.0612 32.5613 23.8292 35.2507 23.6372Z" fill="#E4A984"/>
<path d="M49.9728 16.0111C49.9422 13.9538 48.3168 15.7164 48.4128 17.1191C48.5061 18.5231 48.5635 19.9417 48.7701 20.1577C48.8328 20.2231 50.0022 18.0671 49.9728 16.0111Z" fill="#E4A984"/>
<path d="M20.4595 16.0111C20.4302 18.0671 21.5982 20.2231 21.6596 20.1577C21.8676 19.9417 21.9222 18.5231 22.0182 17.1191C22.1115 15.7164 20.4902 13.9538 20.4595 16.0111Z" fill="#E4A984"/>
<path d="M38.137 31.7167C36.2264 32.5474 33.0957 31.558 33.0957 31.558C35.709 33.9647 38.137 31.7167 38.137 31.7167Z" fill="#E4A984"/>
<path d="M32.4486 29.9739C32.4486 29.9739 35.8419 27.3179 38.9019 29.9739C42.7299 28.2472 43.8845 23.5726 43.8845 23.5726C43.1139 24.0659 42.3538 24.4765 41.6072 24.8072V24.8099C41.6072 24.8099 40.0939 27.9285 35.9605 27.9285C31.8299 27.9285 29.8525 24.8099 29.8525 24.8099C28.1059 24.0525 27.0752 23.2325 27.0752 23.2325C27.5325 25.4539 29.2352 28.6312 32.4486 29.9739Z" fill="#212F40"/>
<path d="M35.9605 27.928C40.0939 27.928 41.6072 24.8106 41.6072 24.8106V24.8079C36.7712 26.9693 32.4912 25.9586 29.8525 24.8106C29.8525 24.8106 31.8299 27.928 35.9605 27.928Z" fill="white"/>
<path d="M32.4482 29.9737C33.5776 30.447 34.8975 30.695 36.4122 30.591C37.3429 30.5297 38.1695 30.3043 38.9015 29.9737C35.8415 27.3177 32.4482 29.9737 32.4482 29.9737Z" fill="#F05A28"/>
<path d="M62.1639 45.2025C61.9932 43.7025 61.2052 42.5451 60.4252 41.2545C59.9025 40.3865 59.1093 39.6318 58.3853 38.9198C57.8519 38.3971 56.4839 36.1891 54.8452 34.4611C53.9972 33.5705 53.2359 32.5958 52.3279 31.7651C51.5225 31.0305 48.6225 29.0198 47.2759 28.0505C47.3892 27.7665 47.4959 27.4798 47.5892 27.1878C48.4225 27.8265 52.2359 30.4358 53.1785 31.2972C54.0865 32.1265 54.8466 33.1012 55.6946 33.9918C57.3346 35.7198 58.7026 37.9278 59.2359 38.4505C59.9586 39.1638 60.5852 39.9798 61.1079 40.8492C61.8839 42.1412 62.4545 43.5705 62.6439 45.0691C62.8892 47.0331 62.4546 48.5665 61.7052 49.7478C61.7052 49.7478 62.5532 48.6198 62.1639 45.2025Z" fill="#367137"/>
<path d="M60.7421 62.375C60.0901 63.639 59.1661 64.799 58.2727 65.8804C57.6541 66.6283 56.9433 67.2483 56.4007 68.059C56.2473 68.2856 56.2554 68.5471 56.1114 68.7778C55.91 69.1003 55.6367 69.3871 55.3674 69.651C55.086 69.9243 54.794 70.171 54.4407 70.347C54.2127 70.4604 53.9994 70.5976 53.7314 70.6431C53.3474 70.7096 52.9513 70.6923 52.5633 70.7323C52.1673 70.7724 51.8074 70.9016 51.4261 71.0084C50.6247 71.2323 49.758 71.3563 48.934 71.1818C48.8247 71.1576 48.4727 71.0523 48.4727 71.0523C48.4727 71.0523 48.0127 71.5816 46.7287 72.267C46.3687 72.4604 45.9674 72.5764 45.5647 72.6404C45.1994 72.6963 44.8407 72.6603 44.4754 72.687C43.7034 72.735 42.9887 73.0658 42.2247 73.1456C41.6767 73.2044 41.2127 72.9523 40.7193 72.747C40.2193 72.5363 39.7274 72.295 39.3007 71.9538C39.0647 71.763 38.0833 70.7404 38.258 70.3898V70.3871L38.3033 70.3563C38.3447 70.327 38.3874 70.299 38.4274 70.2696C38.4274 70.2696 38.7301 70.4297 38.8394 70.4657C38.9074 70.4858 38.982 70.5018 39.0554 70.511C39.202 71.011 39.6967 72.011 41.2714 71.8364C42.094 71.7431 42.3153 70.995 42.2647 70.1538C42.2113 69.1658 41.7874 68.1591 41.3234 67.2323C41.894 68.2884 42.994 70.0991 44.4593 70.5858C45.626 70.9711 46.83 71.1311 48.5487 70.715C50.266 70.299 53.586 69.7298 54.882 68.5136C56.1794 67.2978 55.9327 67.1631 57.0847 66.1136C58.2327 65.0643 59.7141 64.0511 60.7421 62.375Z" fill="#367137"/>
<path d="M60.3095 48.7963C60.0388 50.0296 59.1856 50.7483 57.1576 51.3496C59.5842 50.5403 59.2695 47.075 58.4268 45.2483C57.9148 44.1323 56.7948 43.3816 55.7295 42.9576H55.7269C55.0109 42.6723 54.3215 42.5363 53.8468 42.5363C53.5882 42.5363 53.3215 42.559 53.0469 42.615C54.7629 42.2283 57.4522 42.2576 58.9548 43.8149C60.5108 45.4309 60.5655 47.6496 60.3095 48.7963Z" fill="#212F40"/>
<path d="M57.0205 51.3924C54.4444 52.1124 52.0832 52.1404 50.3285 52.7137C48.5724 53.2871 48.0072 53.4631 46.7939 54.1857C45.5804 54.9084 42.7457 56.1257 41.4605 56.1804C40.3817 56.2257 39.2698 56.3524 38.5338 55.7897C38.3937 55.6831 38.267 55.5537 38.1577 55.3911C37.8765 54.9524 37.9524 54.4831 37.8592 54.2444C37.7671 54.0057 37.4698 53.8617 37.4017 53.4991C37.3325 53.1377 37.4379 52.9497 37.3525 52.6684C37.2699 52.3871 36.8258 52.1351 36.8044 51.5217C36.7872 50.9071 36.9352 50.8057 36.919 50.4657C36.9045 50.1284 36.6098 50.0577 36.6485 49.4271C36.6858 48.8004 36.8205 47.6138 38.5259 47.3138C40.0005 47.0578 40.3551 47.3844 41.0164 47.3524C41.9672 47.3071 41.8605 46.5591 41.7112 46.1951C41.5632 45.8284 41.3377 44.7004 41.5044 44.0911C41.6711 43.4844 42.0098 42.4924 43.5551 42.4164C44.4246 42.3777 44.5512 43.2431 44.5125 43.8057C44.4472 44.7817 44.0446 45.7018 44.0912 46.1418C44.1339 46.5778 44.1497 46.659 44.1497 46.659C44.1497 46.659 45.0832 46.7724 45.9844 46.7724C46.8845 46.7724 48.4204 46.6004 49.8617 44.8164C51.3059 43.0324 52.6659 42.5351 53.8459 42.5351C54.3205 42.5351 55.0112 42.6724 55.727 42.9564H55.7297C56.7951 43.3804 57.915 44.1311 58.4269 45.2484C59.2842 47.1084 59.5965 50.6684 57.0205 51.3924Z" fill="#F9C8AA"/>
<path d="M57.0208 51.3924C54.4448 52.1124 52.0835 52.1404 50.3289 52.7137C48.5729 53.2871 48.0075 53.4631 46.7942 54.1857C45.5809 54.9084 42.7462 56.1257 41.4609 56.1804C40.3822 56.2257 39.2702 56.3524 38.5342 55.7897C42.7702 54.5764 44.6062 53.0271 46.9795 52.2657C49.4995 51.4604 52.3622 51.1764 54.5929 50.7977C56.8222 50.4217 57.7822 49.7431 57.8635 47.3084C57.9475 44.8751 56.3862 43.2937 55.7302 42.9564C56.7956 43.3804 57.9155 44.1311 58.4275 45.2484C59.2848 47.1084 59.5968 50.6684 57.0208 51.3924Z" fill="#E4A984"/>
<path d="M41.2707 71.8362C39.6973 72.0109 39.2014 71.0109 39.0547 70.5109C39.0774 70.5162 39.0987 70.5189 39.1213 70.5216C39.488 70.5522 39.88 70.4429 40.2373 70.3736C40.6333 70.2962 41.0013 70.3256 41.4 70.3256C41.588 70.3256 41.7707 70.3082 41.948 70.2522C42.164 70.1842 42.2653 70.1536 42.2653 70.1536C42.316 70.9962 42.0947 71.7415 41.2707 71.8362Z" fill="#212F40"/>
<path d="M42.2639 70.1544C42.2639 70.1544 42.1626 70.1851 41.9453 70.2517C41.768 70.3077 41.5853 70.3251 41.4 70.3251C41.0013 70.3251 40.6319 70.2944 40.2359 70.3731C39.8772 70.4437 39.4879 70.5517 39.1199 70.5211C39.0253 70.5131 38.9266 70.4944 38.8373 70.4664C38.7293 70.4317 38.4266 70.2704 38.4266 70.2704C38.3852 70.2971 38.344 70.3264 38.3026 70.3557C37.696 70.7731 37.08 71.1797 36.3826 71.4344C36.0626 71.5504 35.7266 71.6224 35.3852 71.6117C35.1426 71.605 34.9039 71.5344 34.6613 71.5397C34.2026 71.5477 33.8359 71.9037 33.3919 71.985C32.8866 72.0784 31.2199 72.0717 31.1319 70.9651C31.1186 70.8144 31.2093 70.4771 31.2199 70.4491C30.6146 70.1424 30.4626 69.6424 30.5279 69.2931C30.0559 69.1424 29.5399 68.6504 29.7479 67.7597C29.6466 67.6757 29.6226 67.6624 29.5813 67.6291C28.6546 66.8677 29.1212 65.645 29.1212 65.645C29.1212 65.645 28.7026 65.2277 28.5652 64.9877C28.3612 64.6317 28.3093 64.1891 28.4226 63.7957C28.6573 62.9864 29.536 62.7531 30.2893 62.7251C30.536 62.7157 30.8 62.7544 31.0426 62.7024C31.2973 62.6477 31.5493 62.5157 31.7933 62.4291C32.1639 62.2984 32.5412 62.1904 32.9199 62.0824C33.2786 61.9824 33.6612 61.9397 34.0306 61.9104C35.5679 61.785 36.8159 62.0024 36.8159 62.0024C36.8159 62.0024 37.3826 62.4277 37.744 62.7571C38.892 63.8037 40.0786 64.8637 40.7986 66.2291C41.4172 67.3997 42.1892 68.7944 42.2639 70.1544Z" fill="#F9C8AA"/>
<path d="M42.2641 70.1541C42.2641 70.1541 42.1628 70.1834 41.9468 70.2527C41.7696 70.3086 41.5867 70.3261 41.3987 70.3261C41.0014 70.3261 40.6321 70.2967 40.2362 70.374C39.8789 70.4432 39.4881 70.5514 39.1203 70.5221C39.0268 70.5141 38.9268 70.494 38.8389 70.4659C38.7296 70.4314 38.4267 70.2699 38.4267 70.2699C38.3867 70.298 38.3441 70.326 38.3028 70.3566C37.6961 70.7754 37.0801 71.1821 36.3814 71.4354C36.0629 71.5514 35.7268 71.6233 35.3843 71.6141C35.1428 71.6061 34.9054 71.534 34.6614 71.5392C34.2028 71.5499 33.8374 71.9046 33.3921 71.9861C32.8881 72.0779 31.2201 72.0712 31.1321 70.9659C31.1241 70.8647 31.1561 70.6739 31.2201 70.4499C34.0348 71.2234 38.7295 70.2699 39.2549 68.0807C39.7707 65.9314 36.6082 62.942 35.3814 61.8754C36.2375 61.9007 36.8161 62.0034 36.8161 62.0034C36.8161 62.0034 37.2348 62.2967 37.7043 62.7219C38.8375 63.7461 40.0801 64.866 40.8002 66.2314C41.4175 67.4007 42.1909 68.7967 42.2641 70.1541Z" fill="#E4A984"/>
<path d="M41.3228 67.2327C41.2628 67.1207 41.2082 67.0167 41.1655 66.9273C41.2189 67.03 41.2722 67.1287 41.3228 67.2327Z" fill="#E4A984"/>
<path d="M31.1325 70.9661C31.1405 71.0674 31.1631 71.1581 31.1965 71.2434C30.9978 71.3368 30.5898 71.4674 30.4418 71.5194C29.1351 71.9754 27.8312 72.3741 26.4552 72.5928C25.2952 72.7781 24.1072 72.8555 22.9378 72.7288C21.8338 72.6128 20.7231 72.3874 19.6365 72.1634C19.0245 72.0368 18.3564 71.9154 17.8124 71.5981C17.6471 71.5021 17.4978 71.3848 17.3831 71.2355C17.3245 71.1581 17.2858 71.0781 17.2432 70.9954C17.1498 70.8234 17.0338 70.7368 16.8831 70.5955C16.4311 70.1715 16.0178 69.6648 15.7418 69.1061C15.6298 68.8794 15.5378 68.6381 15.5352 68.3848C15.5352 68.3341 15.6112 68.0221 15.6112 68.0221C17.2005 68.9635 19.6618 70.1541 23.9805 70.6794C26.1431 70.9434 27.9912 70.8288 29.2818 70.6568C29.2698 70.5581 29.2724 70.4634 29.2871 70.3768C28.8151 70.2274 28.2978 69.7355 28.5085 68.8448C28.4045 68.7608 28.3805 68.7488 28.3405 68.7128C27.4152 67.9514 27.8805 66.7301 27.8805 66.7301C27.8805 66.7301 27.4604 66.3128 27.3258 66.0728C27.1191 65.7155 27.0698 65.2741 27.1818 64.8808C27.3511 64.2994 27.8511 64.0155 28.4018 63.8901C28.3204 64.2581 28.3791 64.6594 28.5671 64.9888C28.7045 65.2274 29.1218 65.6475 29.1218 65.6475C29.1218 65.6475 28.6551 66.8674 29.5818 67.6288C29.6218 67.6621 29.6485 67.6768 29.7485 67.7608C29.5418 68.6488 30.0565 69.1435 30.5285 69.2928C30.4658 69.6435 30.6138 70.1448 31.2205 70.4514C31.2111 70.4754 31.1205 70.8128 31.1325 70.9661Z" fill="#367137"/>
<path d="M48.1314 27.5837C47.8434 28.873 47.1595 30.6664 45.9115 32.0997C44.9181 33.237 43.8488 33.805 42.5288 34.113C42.8461 33.6504 43.1074 33.2624 43.1074 33.2624C43.1074 33.2624 44.0514 32.6304 44.7221 31.9757C46.0688 30.6517 47.0048 28.9744 47.5915 27.1877C47.7128 27.281 47.9008 27.4184 48.1314 27.5837Z" fill="#367137"/>
<path d="M0.666992 27.3336V13.1616C0.666992 12.9682 0.736365 12.8016 0.873698 12.6643C1.01103 12.5269 1.17635 12.4589 1.37101 12.4589H15.5417C15.7363 12.4589 15.903 12.5269 16.0404 12.6643C16.1777 12.8016 16.2457 12.9682 16.2457 13.1616V27.3336C16.2457 27.5283 16.1777 27.6936 16.0404 27.8309C15.903 27.9683 15.7363 28.0376 15.5417 28.0376H1.37101C1.17635 28.0376 1.01103 27.9683 0.873698 27.8309C0.736365 27.6936 0.666992 27.5283 0.666992 27.3336Z" fill="#E4BC56"/>
<path d="M16.2475 12.9664V27.5304C16.2475 27.8091 16.0182 28.0371 15.7395 28.0371H1.17546C0.896789 28.0371 0.66748 27.8091 0.66748 27.5304V27.4865H14.7541C15.0341 27.4865 15.2621 27.2584 15.2621 26.9798V12.4585H15.7395C16.0182 12.4585 16.2475 12.6864 16.2475 12.9664Z" fill="#C0993F"/>
<path d="M2.1499 13.9192H7.02189V16.7393H2.1499V13.9192Z" fill="white"/>
<path d="M26.0157 51.2026C25.9984 53.3614 24.877 55.2468 24.0397 54.976C22.569 54.4986 23.429 49.0734 22.1997 46.1933C20.7757 42.8654 18.9304 41.6173 18.8158 41.5414C18.2251 39.6441 17.5424 37.7761 16.9277 35.8841C18.1211 36.0039 19.9584 37.3308 21.5691 38.7654C21.6131 38.8081 21.6584 38.8546 21.7024 38.8986C24.5011 41.8201 26.049 47.1999 26.0157 51.2026Z" fill="#45A146"/>
<path d="M26.0157 51.2026C25.9984 53.3614 24.877 55.2468 24.0397 54.976C22.569 54.4986 23.429 49.0734 22.1997 46.1933C20.877 43.104 19.1971 41.8201 18.8717 41.5946L18.8224 41.5586C18.2291 39.6601 17.5424 37.7761 16.9277 35.8841C16.9664 35.8867 17.0904 35.908 17.1171 35.912C18.3091 36.1386 20.0398 37.4041 21.5691 38.7654C21.6131 38.8081 21.6584 38.8546 21.7024 38.8986C24.5011 41.8201 26.049 47.1999 26.0157 51.2026Z" fill="#212F40"/>
<path d="M12.749 55.7822C12.4824 55.5036 12.1757 55.1462 11.853 54.7022C12.2024 54.4302 12.609 53.5169 11.921 50.5009C12.0103 50.6316 13.789 53.2956 12.749 55.7822Z" fill="#367137"/>
</svg>
