<svg width="130" height="38" viewBox="0 0 130 38" fill="none" xmlns="http://www.w3.org/2000/svg">
<path d="M12.9389 0.825807C10.5474 0.824534 8.25347 1.77329 6.56157 3.46337C4.86968 5.15344 3.91846 7.44639 3.91716 9.83781V13.2288C2.16616 13.5455 0.410156 13.9688 0.410156 14.5168V32.1627C0.422331 32.3228 0.480595 32.4759 0.577911 32.6036C0.675228 32.7313 0.807431 32.828 0.958553 32.8822C2.94605 33.6871 10.7652 36.4548 12.5615 37.0887C12.6734 37.1415 12.795 37.1706 12.9188 37.1742C13.0427 37.1729 13.1648 37.1437 13.276 37.0887C15.0723 36.4547 22.9116 33.6875 24.899 32.8822C25.0429 32.8256 25.1684 32.7303 25.2616 32.6069C25.3549 32.4835 25.4122 32.3367 25.4274 32.1828V14.5168C25.4274 13.9684 23.6965 13.5256 21.9405 13.2288V9.84751C21.9438 8.66606 21.7143 7.49553 21.2653 6.40275C20.8162 5.30997 20.1563 4.31634 19.3232 3.47859C18.4902 2.64085 17.5002 1.9754 16.41 1.52023C15.3197 1.06506 14.1505 0.829099 12.9691 0.825807H12.9389ZM12.9389 5.13791C13.5722 5.08129 14.2102 5.16438 14.8079 5.38129C15.4057 5.5982 15.9485 5.94365 16.3981 6.39327C16.8477 6.84289 17.1932 7.38571 17.4101 7.98343C17.627 8.58114 17.7101 9.21918 17.6535 9.85251V12.791C14.5163 12.5595 11.3664 12.5595 8.22926 12.791V9.85251C8.17209 9.21949 8.25461 8.58164 8.471 7.98401C8.68739 7.38638 9.03237 6.84356 9.48157 6.39389C9.93076 5.94422 10.4732 5.59866 11.0706 5.38164C11.668 5.16461 12.3058 5.08141 12.9389 5.13791ZM12.9189 17.1179C17.0196 17.1179 20.4613 17.4346 20.4613 18.0034V29.0129C20.4613 29.1843 20.4413 29.2041 20.2902 29.2645C20.1443 29.3299 13.2963 31.8005 13.2963 31.8005C13.1796 31.8383 13.0601 31.8669 12.939 31.886C12.8166 31.8627 12.697 31.8272 12.5818 31.78C12.5818 31.78 5.73365 29.31 5.58775 29.2441C5.44185 29.1782 5.41645 29.1586 5.41645 28.9925V17.9836C5.37635 17.4151 8.81805 17.1179 12.9189 17.1179Z" fill="white"/>
<path d="M37.0612 29.163V17.1071H32.6562V12.7838H46.3908V17.1071H42.0293V29.163H37.0612Z" fill="white"/>
<path d="M57.5187 29.163L55.2587 24.0131H53.4599V29.163H48.4922V12.7838H57.2349C61.0722 12.7838 63.1307 15.3277 63.1307 18.3958C63.1755 19.4207 62.9205 20.4365 62.3969 21.3188C61.8733 22.2011 61.1039 22.9117 60.1828 23.3635L63.1499 29.1585H57.5187V29.163ZM58.1054 18.3958C58.1054 17.5058 57.3168 17.1215 56.4896 17.1215H53.4596V19.7087H56.4896C57.3167 19.6895 58.1054 19.3048 58.1054 18.3958Z" fill="white"/>
<path d="M65.7383 29.163V12.7838H78.1598V17.1071H70.6867V18.7229H77.9767V23.0461H70.6867V24.8447H78.1598V29.163H65.7383Z" fill="white"/>
<path d="M80.7422 29.1823V25.2437L86.9843 17.1262H80.7422V12.8029H93.5245V16.7029L87.2632 24.8637H93.7073V29.187L80.7422 29.1823Z" fill="white"/>
<path d="M94.918 21.0022C94.918 15.9722 98.818 12.5192 103.887 12.5192C108.936 12.5192 112.855 15.9528 112.855 21.0022C112.855 26.0322 108.955 29.4662 103.887 29.4662C98.818 29.4662 94.918 26.0326 94.918 21.0022ZM107.806 21.0022C107.828 20.4715 107.742 19.9418 107.554 19.445C107.366 18.9482 107.079 18.4945 106.711 18.1113C106.343 17.7281 105.902 17.4231 105.413 17.2148C104.925 17.0065 104.399 16.8992 103.868 16.8992C103.336 16.8992 102.811 17.0065 102.322 17.2148C101.833 17.4231 101.392 17.7281 101.024 18.1113C100.656 18.4945 100.369 18.9482 100.181 19.445C99.9931 19.9418 99.9073 20.4715 99.9291 21.0022C99.9075 21.5329 99.9934 22.0624 100.182 22.5591C100.37 23.0557 100.656 23.5092 101.024 23.8923C101.392 24.2754 101.834 24.5802 102.322 24.7884C102.811 24.9966 103.336 25.104 103.868 25.104C104.399 25.104 104.924 24.9966 105.413 24.7884C105.901 24.5802 106.343 24.2754 106.711 23.8923C107.079 23.5092 107.365 23.0557 107.553 22.5591C107.742 22.0624 107.828 21.5329 107.806 21.0022Z" fill="white"/>
<path d="M123.96 29.1823L121.699 24.0317H119.901V29.1817H114.934V12.8029H123.676C127.514 12.8029 129.572 15.3469 129.572 18.415C129.617 19.44 129.362 20.4558 128.838 21.338C128.315 22.2203 127.545 22.9308 126.624 23.3826L129.591 29.1776H123.96V29.1823ZM124.565 18.3957C124.565 17.5057 123.777 17.1214 122.95 17.1214H119.92V19.7086H122.95C123.782 19.6894 124.565 19.3047 124.565 18.3957Z" fill="white"/>
</svg>
